<?xml version="1.0" encoding="UTF-8" standalone="no"?>
<svg width="379.589mm" height="63.5mm"
 xmlns="http://www.w3.org/2000/svg" xmlns:xlink="http://www.w3.org/1999/xlink"  version="1.2" baseProfile="tiny">
<title>Qt SVG Document</title>
<desc>Generated with Qt</desc>
<defs>
</defs>
<g fill="none" stroke="black" stroke-width="1" fill-rule="evenodd" stroke-linecap="square" stroke-linejoin="bevel" >

<g fill="none" stroke="#000000" stroke-opacity="1" stroke-width="1" stroke-linecap="square" stroke-linejoin="bevel" transform="matrix(1,0,0,1,0,0)"
font-family="Sans Serif" font-size="9" font-weight="400" font-style="normal" 
>
</g>

<g fill="none" stroke="#000000" stroke-opacity="1" stroke-width="1" stroke-linecap="square" stroke-linejoin="bevel" transform="matrix(1,0,0,1,0,0)"
font-family="Sans Serif" font-size="9" font-weight="400" font-style="normal" 
>
</g>

<g fill="none" stroke="#000000" stroke-opacity="1" stroke-width="1" stroke-linecap="square" stroke-linejoin="bevel" transform="matrix(2,0,0,2,-0.0016,180)"
font-family="Sans Serif" font-size="9" font-weight="400" font-style="normal" 
>
</g>

<g fill="#ffffff" fill-opacity="1" stroke="none" transform="matrix(2,0,0,2,-0.0016,180)"
font-family="Sans Serif" font-size="9" font-weight="400" font-style="normal" 
>
<rect x="0.0008" y="-90" width="537.868" height="90"/>
</g>

<g fill="none" stroke="#000000" stroke-opacity="1" stroke-width="1" stroke-linecap="square" stroke-linejoin="bevel" transform="matrix(2,0,0,2,-0.0016,180)"
font-family="Sans Serif" font-size="9" font-weight="400" font-style="normal" 
>
</g>

<g fill="none" stroke="#000000" stroke-opacity="1" stroke-width="1" stroke-linecap="square" stroke-linejoin="bevel" transform="matrix(2,0,0,2,-0.0016,180)"
font-family="Sans Serif" font-size="9" font-weight="400" font-style="normal" 
>
</g>

<g fill="none" stroke="#000000" stroke-opacity="1" stroke-width="1" stroke-linecap="square" stroke-linejoin="bevel" transform="matrix(2,0,0,2,-0.0016,180)"
font-family="Sans Serif" font-size="9" font-weight="400" font-style="normal" 
>
</g>

<g fill="none" stroke="#000000" stroke-opacity="1" stroke-width="1" stroke-linecap="square" stroke-linejoin="bevel" transform="matrix(2,0,0,2,-0.0016,180)"
font-family="Sans Serif" font-size="9" font-weight="400" font-style="normal" 
>
</g>

<g fill="none" stroke="#000000" stroke-opacity="1" stroke-width="1" stroke-linecap="square" stroke-linejoin="round" transform="matrix(2,0,0,2,-0.0016,180)"
font-family="Sans Serif" font-size="9" font-weight="400" font-style="normal" 
>
<rect x="442.371" y="-89.5" width="94.9976" height="35"/>
</g>

<g fill="none" stroke="#000000" stroke-opacity="1" stroke-width="1" stroke-linecap="square" stroke-linejoin="bevel" transform="matrix(2,0,0,2,-0.0016,180)"
font-family="Sans Serif" font-size="9" font-weight="400" font-style="normal" 
>
</g>

<g fill="none" stroke="#000000" stroke-opacity="1" stroke-width="1" stroke-linecap="square" stroke-linejoin="bevel" transform="matrix(2,0,0,2,906.02,20)"
font-family="Sans Serif" font-size="9" font-weight="400" font-style="normal" 
>
</g>

<g fill="none" stroke="#000000" stroke-opacity="1" stroke-width="1" stroke-linecap="square" stroke-linejoin="bevel" transform="matrix(2,0,0,2,906.02,20)"
font-family="sans" font-size="11" font-weight="100" font-style="normal" 
>
</g>

<g fill="#000000" fill-opacity="1" stroke="#000000" stroke-opacity="1" stroke-width="1" stroke-linecap="square" stroke-linejoin="round" transform="matrix(2,0,0,2,906.02,20)"
font-family="sans" font-size="11" font-weight="100" font-style="normal" 
>
<path vector-effect="none" fill-rule="nonzero" d="M3.70313,4.14063 L0.765625,12 L0.125,12 L3.0625,4.14063 L3.70313,4.14063 M8.46875,10.4531 C8.46875,10.974 8.27083,11.3802 7.875,11.6719 C7.47917,11.9635 6.92188,12.1094 6.20313,12.1094 C5.78646,12.1094 5.42188,12.0755 5.10938,12.0078 C4.79688,11.9401 4.53125,11.849 4.3125,11.7344 L4.3125,11.125 C4.57292,11.2604 4.86719,11.3698 5.19531,11.4531 C5.52344,11.5365 5.85938,11.5781 6.20313,11.5781 C6.77604,11.5781 7.19271,11.4818 7.45313,11.2891 C7.71354,11.0964 7.84375,10.8333 7.84375,10.5 C7.84375,10.1771 7.70833,9.92708 7.4375,9.75 C7.16667,9.57292 6.77083,9.39583 6.25,9.21875 C5.875,9.09375 5.55208,8.96615 5.28125,8.83594 C5.01042,8.70573 4.79688,8.54167 4.64063,8.34375 C4.48438,8.14583 4.40625,7.875 4.40625,7.53125 C4.40625,7.0625 4.59635,6.69531 4.97656,6.42969 C5.35677,6.16406 5.86979,6.03125 6.51563,6.03125 C6.85938,6.03125 7.1849,6.0651 7.49219,6.13281 C7.79948,6.20052 8.07813,6.29167 8.32813,6.40625 L8.10938,6.92188 C7.88021,6.82813 7.6224,6.74479 7.33594,6.67188 C7.04948,6.59896 6.76042,6.5625 6.46875,6.5625 C6.01042,6.5625 5.65365,6.64323 5.39844,6.80469 C5.14323,6.96615 5.01563,7.20313 5.01563,7.51563 C5.01563,7.74479 5.07813,7.92708 5.20313,8.0625 C5.32813,8.19792 5.50781,8.3151 5.74219,8.41406 C5.97656,8.51302 6.26042,8.61979 6.59375,8.73438 C6.94792,8.85938 7.26302,8.98698 7.53906,9.11719 C7.8151,9.2474 8.03906,9.41667 8.21094,9.625 C8.38281,9.83333 8.46875,10.1094 8.46875,10.4531 M8.98438,6.14063 L9.64063,6.14063 L11.0313,9.78125 C11.1563,10.1042 11.263,10.3932 11.3516,10.6484 C11.4401,10.9036 11.5052,11.1302 11.5469,11.3281 L11.5938,11.3281 C11.6979,10.9635 11.8698,10.4531 12.1094,9.79688 L13.4688,6.14063 L14.1406,6.14063 L11.5,13.0313 C11.3021,13.5521 11.0677,13.9531 10.7969,14.2344 C10.526,14.5156 10.1563,14.6563 9.6875,14.6563 C9.55208,14.6563 9.42708,14.6484 9.3125,14.6328 C9.19792,14.6172 9.09375,14.5885 9,14.5469 L9,14.0313 C9.09375,14.0521 9.1901,14.0729 9.28906,14.0938 C9.38802,14.1146 9.5,14.125 9.625,14.125 C9.92708,14.125 10.1745,14.0286 10.3672,13.8359 C10.5599,13.6432 10.7344,13.349 10.8906,12.9531 L11.2656,11.9844 L8.98438,6.14063 M18.7813,10.4531 C18.7813,10.974 18.5833,11.3802 18.1875,11.6719 C17.7917,11.9635 17.2344,12.1094 16.5156,12.1094 C16.099,12.1094 15.7344,12.0755 15.4219,12.0078 C15.1094,11.9401 14.8438,11.849 14.625,11.7344 L14.625,11.125 C14.8854,11.2604 15.1797,11.3698 15.5078,11.4531 C15.8359,11.5365 16.1719,11.5781 16.5156,11.5781 C17.0885,11.5781 17.5052,11.4818 17.7656,11.2891 C18.026,11.0964 18.1563,10.8333 18.1563,10.5 C18.1563,10.1771 18.0208,9.92708 17.75,9.75 C17.4792,9.57292 17.0833,9.39583 16.5625,9.21875 C16.1875,9.09375 15.8646,8.96615 15.5938,8.83594 C15.3229,8.70573 15.1094,8.54167 14.9531,8.34375 C14.7969,8.14583 14.7188,7.875 14.7188,7.53125 C14.7188,7.0625 14.9089,6.69531 15.2891,6.42969 C15.6693,6.16406 16.1823,6.03125 16.8281,6.03125 C17.1719,6.03125 17.4974,6.0651 17.8047,6.13281 C18.112,6.20052 18.3906,6.29167 18.6406,6.40625 L18.4219,6.92188 C18.1927,6.82813 17.9349,6.74479 17.6484,6.67188 C17.362,6.59896 17.0729,6.5625 16.7813,6.5625 C16.3229,6.5625 15.9661,6.64323 15.7109,6.80469 C15.4557,6.96615 15.3281,7.20313 15.3281,7.51563 C15.3281,7.74479 15.3906,7.92708 15.5156,8.0625 C15.6406,8.19792 15.8203,8.3151 16.0547,8.41406 C16.2891,8.51302 16.5729,8.61979 16.9063,8.73438 C17.2604,8.85938 17.5755,8.98698 17.8516,9.11719 C18.1276,9.2474 18.3516,9.41667 18.5234,9.625 C18.6953,9.83333 18.7813,10.1094 18.7813,10.4531 M21.9063,11.5781 C22.0625,11.5781 22.2135,11.5651 22.3594,11.5391 C22.5052,11.513 22.6354,11.4792 22.75,11.4375 L22.75,11.9375 C22.6354,11.9896 22.4974,12.0313 22.3359,12.0625 C22.1745,12.0938 22.0052,12.1094 21.8281,12.1094 C21.3281,12.1094 20.9479,11.974 20.6875,11.7031 C20.4271,11.4323 20.2969,10.9896 20.2969,10.375 L20.2969,6.65625 L19.4219,6.65625 L19.4219,6.29688 L20.2969,6.09375 L20.5156,4.75 L20.9219,4.75 L20.9219,6.14063 L22.7188,6.14063 L22.7188,6.65625 L20.9219,6.65625 L20.9219,10.3438 C20.9219,11.1667 21.25,11.5781 21.9063,11.5781 M26.2031,6.03125 C26.7031,6.03125 27.1198,6.14844 27.4531,6.38281 C27.7865,6.61719 28.0391,6.9349 28.2109,7.33594 C28.3828,7.73698 28.4688,8.19792 28.4688,8.71875 L28.4688,9.15625 L24.2969,9.15625 C24.2969,9.92708 24.4766,10.5208 24.8359,10.9375 C25.1953,11.3542 25.7135,11.5625 26.3906,11.5625 C26.7552,11.5625 27.0729,11.5313 27.3438,11.4688 C27.6146,11.4063 27.9115,11.3021 28.2344,11.1563 L28.2344,11.7344 C27.9427,11.8698 27.6536,11.9661 27.3672,12.0234 C27.0807,12.0807 26.75,12.1094 26.375,12.1094 C25.4896,12.1094 24.8125,11.8411 24.3438,11.3047 C23.875,10.7682 23.6406,10.0417 23.6406,9.125 C23.6406,8.52083 23.7422,7.98958 23.9453,7.53125 C24.1484,7.07292 24.4401,6.70833 24.8203,6.4375 C25.2005,6.16667 25.6615,6.03125 26.2031,6.03125 M26.1875,6.5625 C25.6563,6.5625 25.224,6.74219 24.8906,7.10156 C24.5573,7.46094 24.3646,7.97396 24.3125,8.64063 L27.8281,8.64063 C27.8281,8.01563 27.6927,7.51302 27.4219,7.13281 C27.151,6.7526 26.7396,6.5625 26.1875,6.5625 M36.1563,6.03125 C36.7396,6.03125 37.1953,6.19792 37.5234,6.53125 C37.8516,6.86458 38.0156,7.38542 38.0156,8.09375 L38.0156,12 L37.3906,12 L37.3906,8.10938 C37.3906,7.58854 37.2734,7.20313 37.0391,6.95313 C36.8047,6.70313 36.4844,6.57813 36.0781,6.57813 C35.5156,6.57813 35.0859,6.74219 34.7891,7.07031 C34.4922,7.39844 34.3438,7.90104 34.3438,8.57813 L34.3438,12 L33.7188,12 L33.7188,8.10938 C33.7188,7.58854 33.599,7.20313 33.3594,6.95313 C33.1198,6.70313 32.8021,6.57813 32.4063,6.57813 C31.8438,6.57813 31.4141,6.75 31.1172,7.09375 C30.8203,7.4375 30.6719,7.96354 30.6719,8.67188 L30.6719,12 L30.0469,12 L30.0469,6.14063 L30.5469,6.14063 L30.6406,7.07813 L30.6875,7.07813 C30.8333,6.78646 31.0547,6.53906 31.3516,6.33594 C31.6484,6.13281 32.026,6.03125 32.4844,6.03125 C32.9115,6.03125 33.2708,6.125 33.5625,6.3125 C33.8542,6.5 34.0625,6.77083 34.1875,7.125 L34.2344,7.125 C34.401,6.78125 34.651,6.51302 34.9844,6.32031 C35.3177,6.1276 35.7083,6.03125 36.1563,6.03125 M43.5313,13.4844 L38.8906,13.4844 L38.8906,12.9844 L43.5313,12.9844 L43.5313,13.4844 M48.1563,10.4531 C48.1563,10.974 47.9583,11.3802 47.5625,11.6719 C47.1667,11.9635 46.6094,12.1094 45.8906,12.1094 C45.474,12.1094 45.1094,12.0755 44.7969,12.0078 C44.4844,11.9401 44.2188,11.849 44,11.7344 L44,11.125 C44.2604,11.2604 44.5547,11.3698 44.8828,11.4531 C45.2109,11.5365 45.5469,11.5781 45.8906,11.5781 C46.4635,11.5781 46.8802,11.4818 47.1406,11.2891 C47.401,11.0964 47.5313,10.8333 47.5313,10.5 C47.5313,10.1771 47.3958,9.92708 47.125,9.75 C46.8542,9.57292 46.4583,9.39583 45.9375,9.21875 C45.5625,9.09375 45.2396,8.96615 44.9688,8.83594 C44.6979,8.70573 44.4844,8.54167 44.3281,8.34375 C44.1719,8.14583 44.0938,7.875 44.0938,7.53125 C44.0938,7.0625 44.2839,6.69531 44.6641,6.42969 C45.0443,6.16406 45.5573,6.03125 46.2031,6.03125 C46.5469,6.03125 46.8724,6.0651 47.1797,6.13281 C47.487,6.20052 47.7656,6.29167 48.0156,6.40625 L47.7969,6.92188 C47.5677,6.82813 47.3099,6.74479 47.0234,6.67188 C46.737,6.59896 46.4479,6.5625 46.1563,6.5625 C45.6979,6.5625 45.3411,6.64323 45.0859,6.80469 C44.8307,6.96615 44.7031,7.20313 44.7031,7.51563 C44.7031,7.74479 44.7656,7.92708 44.8906,8.0625 C45.0156,8.19792 45.1953,8.3151 45.4297,8.41406 C45.6641,8.51302 45.9479,8.61979 46.2813,8.73438 C46.6354,8.85938 46.9505,8.98698 47.2266,9.11719 C47.5026,9.2474 47.7266,9.41667 47.8984,9.625 C48.0703,9.83333 48.1563,10.1094 48.1563,10.4531 M51.2813,11.5781 C51.4375,11.5781 51.5885,11.5651 51.7344,11.5391 C51.8802,11.513 52.0104,11.4792 52.125,11.4375 L52.125,11.9375 C52.0104,11.9896 51.8724,12.0313 51.7109,12.0625 C51.5495,12.0938 51.3802,12.1094 51.2031,12.1094 C50.7031,12.1094 50.3229,11.974 50.0625,11.7031 C49.8021,11.4323 49.6719,10.9896 49.6719,10.375 L49.6719,6.65625 L48.7969,6.65625 L48.7969,6.29688 L49.6719,6.09375 L49.8906,4.75 L50.2969,4.75 L50.2969,6.14063 L52.0938,6.14063 L52.0938,6.65625 L50.2969,6.65625 L50.2969,10.3438 C50.2969,11.1667 50.625,11.5781 51.2813,11.5781 M55.4219,6.04688 C56.0885,6.04688 56.5833,6.20833 56.9063,6.53125 C57.2292,6.85417 57.3906,7.36458 57.3906,8.0625 L57.3906,12 L56.9063,12 L56.7969,11.0156 L56.7656,11.0156 C56.5573,11.3385 56.2995,11.6016 55.9922,11.8047 C55.6849,12.0078 55.2604,12.1094 54.7188,12.1094 C54.1563,12.1094 53.7135,11.9688 53.3906,11.6875 C53.0677,11.4063 52.9063,11 52.9063,10.4688 C52.9063,9.88542 53.1458,9.4401 53.625,9.13281 C54.1042,8.82552 54.7969,8.65625 55.7031,8.625 L56.7656,8.5625 L56.7656,8.15625 C56.7656,7.58333 56.651,7.17708 56.4219,6.9375 C56.1927,6.69792 55.8542,6.57813 55.4063,6.57813 C55.1042,6.57813 54.8151,6.61719 54.5391,6.69531 C54.263,6.77344 53.9844,6.88021 53.7031,7.01563 L53.5,6.51563 C53.7813,6.38021 54.0859,6.26823 54.4141,6.17969 C54.7422,6.09115 55.0781,6.04688 55.4219,6.04688 M55.7813,9.07813 C55.0313,9.11979 54.474,9.2526 54.1094,9.47656 C53.7448,9.70052 53.5625,10.0313 53.5625,10.4688 C53.5625,10.8333 53.6745,11.1094 53.8984,11.2969 C54.1224,11.4844 54.4323,11.5781 54.8281,11.5781 C55.4427,11.5781 55.9193,11.4036 56.2578,11.0547 C56.5964,10.7057 56.7656,10.224 56.7656,9.60938 L56.7656,9.04688 L55.7813,9.07813 M60.9063,11.5781 C61.0625,11.5781 61.2135,11.5651 61.3594,11.5391 C61.5052,11.513 61.6354,11.4792 61.75,11.4375 L61.75,11.9375 C61.6354,11.9896 61.4974,12.0313 61.3359,12.0625 C61.1745,12.0938 61.0052,12.1094 60.8281,12.1094 C60.3281,12.1094 59.9479,11.974 59.6875,11.7031 C59.4271,11.4323 59.2969,10.9896 59.2969,10.375 L59.2969,6.65625 L58.4219,6.65625 L58.4219,6.29688 L59.2969,6.09375 L59.5156,4.75 L59.9219,4.75 L59.9219,6.14063 L61.7188,6.14063 L61.7188,6.65625 L59.9219,6.65625 L59.9219,10.3438 C59.9219,11.1667 60.25,11.5781 60.9063,11.5781 M67.5938,6.14063 L67.5938,12 L67.0938,12 L66.9844,11 L66.9531,11 C66.7969,11.3229 66.5521,11.5885 66.2188,11.7969 C65.8854,12.0052 65.4688,12.1094 64.9688,12.1094 C63.5938,12.1094 62.9063,11.3958 62.9063,9.96875 L62.9063,6.14063 L63.5313,6.14063 L63.5313,9.92188 C63.5313,10.4844 63.6589,10.901 63.9141,11.1719 C64.1693,11.4427 64.5469,11.5781 65.0469,11.5781 C66.3281,11.5781 66.9688,10.8333 66.9688,9.34375 L66.9688,6.14063 L67.5938,6.14063 M73.2188,10.4531 C73.2188,10.974 73.0208,11.3802 72.625,11.6719 C72.2292,11.9635 71.6719,12.1094 70.9531,12.1094 C70.5365,12.1094 70.1719,12.0755 69.8594,12.0078 C69.5469,11.9401 69.2813,11.849 69.0625,11.7344 L69.0625,11.125 C69.3229,11.2604 69.6172,11.3698 69.9453,11.4531 C70.2734,11.5365 70.6094,11.5781 70.9531,11.5781 C71.526,11.5781 71.9427,11.4818 72.2031,11.2891 C72.4635,11.0964 72.5938,10.8333 72.5938,10.5 C72.5938,10.1771 72.4583,9.92708 72.1875,9.75 C71.9167,9.57292 71.5208,9.39583 71,9.21875 C70.625,9.09375 70.3021,8.96615 70.0313,8.83594 C69.7604,8.70573 69.5469,8.54167 69.3906,8.34375 C69.2344,8.14583 69.1563,7.875 69.1563,7.53125 C69.1563,7.0625 69.3464,6.69531 69.7266,6.42969 C70.1068,6.16406 70.6198,6.03125 71.2656,6.03125 C71.6094,6.03125 71.9349,6.0651 72.2422,6.13281 C72.5495,6.20052 72.8281,6.29167 73.0781,6.40625 L72.8594,6.92188 C72.6302,6.82813 72.3724,6.74479 72.0859,6.67188 C71.7995,6.59896 71.5104,6.5625 71.2188,6.5625 C70.7604,6.5625 70.4036,6.64323 70.1484,6.80469 C69.8932,6.96615 69.7656,7.20313 69.7656,7.51563 C69.7656,7.74479 69.8281,7.92708 69.9531,8.0625 C70.0781,8.19792 70.2578,8.3151 70.4922,8.41406 C70.7266,8.51302 71.0104,8.61979 71.3438,8.73438 C71.6979,8.85938 72.013,8.98698 72.2891,9.11719 C72.5651,9.2474 72.7891,9.41667 72.9609,9.625 C73.1328,9.83333 73.2188,10.1094 73.2188,10.4531 "/>
</g>

<g fill="none" stroke="#000000" stroke-opacity="1" stroke-width="1" stroke-linecap="square" stroke-linejoin="bevel" transform="matrix(2,0,0,2,906.02,20)"
font-family="sans" font-size="11" font-weight="100" font-style="normal" 
>
</g>

<g fill="none" stroke="#000000" stroke-opacity="1" stroke-width="1" stroke-linecap="square" stroke-linejoin="bevel" transform="matrix(2,0,0,2,906.02,20)"
font-family="Sans Serif" font-size="9" font-weight="400" font-style="normal" 
>
</g>

<g fill="none" stroke="#000000" stroke-opacity="1" stroke-width="1" stroke-linecap="square" stroke-linejoin="bevel" transform="matrix(2,0,0,2,-0.0016,180)"
font-family="Sans Serif" font-size="9" font-weight="400" font-style="normal" 
>
</g>

<g fill="none" stroke="#000000" stroke-opacity="1" stroke-width="1" stroke-linecap="square" stroke-linejoin="bevel" transform="matrix(2,0,0,2,-0.0016,180)"
font-family="Sans Serif" font-size="9" font-weight="400" font-style="normal" 
>
</g>

<g fill="none" stroke="#000000" stroke-opacity="1" stroke-width="1" stroke-linecap="square" stroke-linejoin="bevel" transform="matrix(2,0,0,2,-0.0016,180)"
font-family="Sans Serif" font-size="9" font-weight="400" font-style="normal" 
>
</g>

<g fill="none" stroke="#000000" stroke-opacity="1" stroke-width="1" stroke-linecap="square" stroke-linejoin="round" transform="matrix(2,0,0,2,-0.0016,180)"
font-family="Sans Serif" font-size="9" font-weight="400" font-style="normal" 
>
<rect x="200.379" y="-62.5" width="83.0024" height="35"/>
</g>

<g fill="none" stroke="#000000" stroke-opacity="1" stroke-width="1" stroke-linecap="square" stroke-linejoin="bevel" transform="matrix(2,0,0,2,-0.0016,180)"
font-family="Sans Serif" font-size="9" font-weight="400" font-style="normal" 
>
</g>

<g fill="none" stroke="#000000" stroke-opacity="1" stroke-width="1" stroke-linecap="square" stroke-linejoin="bevel" transform="matrix(2,0,0,2,422.852,74)"
font-family="Sans Serif" font-size="9" font-weight="400" font-style="normal" 
>
</g>

<g fill="none" stroke="#000000" stroke-opacity="1" stroke-width="1" stroke-linecap="square" stroke-linejoin="bevel" transform="matrix(2,0,0,2,422.852,74)"
font-family="sans" font-size="11" font-weight="100" font-style="normal" 
>
</g>

<g fill="#000000" fill-opacity="1" stroke="#000000" stroke-opacity="1" stroke-width="1" stroke-linecap="square" stroke-linejoin="round" transform="matrix(2,0,0,2,422.852,74)"
font-family="sans" font-size="11" font-weight="100" font-style="normal" 
>
<path vector-effect="none" fill-rule="nonzero" d="M3.70313,4.14063 L0.765625,12 L0.125,12 L3.0625,4.14063 L3.70313,4.14063 M10.8906,6.03125 C11.474,6.03125 11.9297,6.19792 12.2578,6.53125 C12.5859,6.86458 12.75,7.38542 12.75,8.09375 L12.75,12 L12.125,12 L12.125,8.10938 C12.125,7.58854 12.0078,7.20313 11.7734,6.95313 C11.5391,6.70313 11.2188,6.57813 10.8125,6.57813 C10.25,6.57813 9.82031,6.74219 9.52344,7.07031 C9.22656,7.39844 9.07813,7.90104 9.07813,8.57813 L9.07813,12 L8.45313,12 L8.45313,8.10938 C8.45313,7.58854 8.33333,7.20313 8.09375,6.95313 C7.85417,6.70313 7.53646,6.57813 7.14063,6.57813 C6.57813,6.57813 6.14844,6.75 5.85156,7.09375 C5.55469,7.4375 5.40625,7.96354 5.40625,8.67188 L5.40625,12 L4.78125,12 L4.78125,6.14063 L5.28125,6.14063 L5.375,7.07813 L5.42188,7.07813 C5.56771,6.78646 5.78906,6.53906 6.08594,6.33594 C6.38281,6.13281 6.76042,6.03125 7.21875,6.03125 C7.64583,6.03125 8.00521,6.125 8.29688,6.3125 C8.58854,6.5 8.79688,6.77083 8.92188,7.125 L8.96875,7.125 C9.13542,6.78125 9.38542,6.51302 9.71875,6.32031 C10.0521,6.1276 10.4427,6.03125 10.8906,6.03125 M19.5,9.0625 C19.5,9.67708 19.401,10.2109 19.2031,10.6641 C19.0052,11.1172 18.7083,11.4714 18.3125,11.7266 C17.9167,11.9818 17.4375,12.1094 16.875,12.1094 C16.3333,12.1094 15.8672,11.9844 15.4766,11.7344 C15.0859,11.4844 14.7865,11.1302 14.5781,10.6719 C14.3698,10.2135 14.2656,9.67708 14.2656,9.0625 C14.2656,8.11458 14.5,7.3724 14.9688,6.83594 C15.4375,6.29948 16.0885,6.03125 16.9219,6.03125 C17.474,6.03125 17.9427,6.15885 18.3281,6.41406 C18.7135,6.66927 19.0052,7.02344 19.2031,7.47656 C19.401,7.92969 19.5,8.45833 19.5,9.0625 M14.9219,9.0625 C14.9219,9.82292 15.0807,10.4323 15.3984,10.8906 C15.7161,11.349 16.2135,11.5781 16.8906,11.5781 C17.5677,11.5781 18.0651,11.3464 18.3828,10.8828 C18.7005,10.4193 18.8594,9.8125 18.8594,9.0625 C18.8594,8.58333 18.7917,8.15625 18.6563,7.78125 C18.5208,7.40625 18.3099,7.11198 18.0234,6.89844 C17.737,6.6849 17.3646,6.57813 16.9063,6.57813 C16.25,6.57813 15.7552,6.79688 15.4219,7.23438 C15.0885,7.67188 14.9219,8.28125 14.9219,9.0625 M22.75,11.5781 C22.9063,11.5781 23.0573,11.5651 23.2031,11.5391 C23.349,11.513 23.4792,11.4792 23.5938,11.4375 L23.5938,11.9375 C23.4792,11.9896 23.3411,12.0313 23.1797,12.0625 C23.0182,12.0938 22.849,12.1094 22.6719,12.1094 C22.1719,12.1094 21.7917,11.974 21.5313,11.7031 C21.2708,11.4323 21.1406,10.9896 21.1406,10.375 L21.1406,6.65625 L20.2656,6.65625 L20.2656,6.29688 L21.1406,6.09375 L21.3594,4.75 L21.7656,4.75 L21.7656,6.14063 L23.5625,6.14063 L23.5625,6.65625 L21.7656,6.65625 L21.7656,10.3438 C21.7656,11.1667 22.0938,11.5781 22.75,11.5781 M29.7188,9.0625 C29.7188,9.67708 29.6198,10.2109 29.4219,10.6641 C29.224,11.1172 28.9271,11.4714 28.5313,11.7266 C28.1354,11.9818 27.6563,12.1094 27.0938,12.1094 C26.5521,12.1094 26.0859,11.9844 25.6953,11.7344 C25.3047,11.4844 25.0052,11.1302 24.7969,10.6719 C24.5885,10.2135 24.4844,9.67708 24.4844,9.0625 C24.4844,8.11458 24.7188,7.3724 25.1875,6.83594 C25.6563,6.29948 26.3073,6.03125 27.1406,6.03125 C27.6927,6.03125 28.1615,6.15885 28.5469,6.41406 C28.9323,6.66927 29.224,7.02344 29.4219,7.47656 C29.6198,7.92969 29.7188,8.45833 29.7188,9.0625 M25.1406,9.0625 C25.1406,9.82292 25.2995,10.4323 25.6172,10.8906 C25.9349,11.349 26.4323,11.5781 27.1094,11.5781 C27.7865,11.5781 28.2839,11.3464 28.6016,10.8828 C28.9193,10.4193 29.0781,9.8125 29.0781,9.0625 C29.0781,8.58333 29.0104,8.15625 28.875,7.78125 C28.7396,7.40625 28.5286,7.11198 28.2422,6.89844 C27.9557,6.6849 27.5833,6.57813 27.125,6.57813 C26.4688,6.57813 25.974,6.79688 25.6406,7.23438 C25.3073,7.67188 25.1406,8.28125 25.1406,9.0625 M33.7188,6.04688 C34.0104,6.04688 34.276,6.07813 34.5156,6.14063 L34.4219,6.71875 C34.1823,6.65625 33.9375,6.625 33.6875,6.625 C33.1563,6.625 32.7318,6.82292 32.4141,7.21875 C32.0964,7.61458 31.9375,8.13542 31.9375,8.78125 L31.9375,12 L31.3125,12 L31.3125,6.14063 L31.8438,6.14063 L31.9063,7.23438 L31.9375,7.23438 C32.0833,6.90104 32.3073,6.61979 32.6094,6.39063 C32.9115,6.16146 33.2813,6.04688 33.7188,6.04688 M39.2969,13.4844 L34.6563,13.4844 L34.6563,12.9844 L39.2969,12.9844 L39.2969,13.4844 M42.5781,12.1094 C41.724,12.1094 41.0625,11.8464 40.5938,11.3203 C40.125,10.7943 39.8906,10.0573 39.8906,9.10938 C39.8906,8.44271 40.0078,7.88281 40.2422,7.42969 C40.4766,6.97656 40.8047,6.63021 41.2266,6.39063 C41.6484,6.15104 42.1406,6.03125 42.7031,6.03125 C42.9844,6.03125 43.25,6.05729 43.5,6.10938 C43.75,6.16146 43.9688,6.23438 44.1563,6.32813 L43.9844,6.85938 C43.7865,6.77604 43.5729,6.71094 43.3438,6.66406 C43.1146,6.61719 42.901,6.59375 42.7031,6.59375 C42.0052,6.59375 41.4714,6.81771 41.1016,7.26563 C40.7318,7.71354 40.5469,8.32292 40.5469,9.09375 C40.5469,9.83333 40.7109,10.4271 41.0391,10.875 C41.3672,11.3229 41.8802,11.5469 42.5781,11.5469 C42.8594,11.5469 43.1302,11.5182 43.3906,11.4609 C43.651,11.4036 43.8802,11.3281 44.0781,11.2344 L44.0781,11.7969 C43.8906,11.8906 43.6745,11.9661 43.4297,12.0234 C43.1849,12.0807 42.901,12.1094 42.5781,12.1094 M51.5781,6.03125 C52.1615,6.03125 52.6172,6.19792 52.9453,6.53125 C53.2734,6.86458 53.4375,7.38542 53.4375,8.09375 L53.4375,12 L52.8125,12 L52.8125,8.10938 C52.8125,7.58854 52.6953,7.20313 52.4609,6.95313 C52.2266,6.70313 51.9063,6.57813 51.5,6.57813 C50.9375,6.57813 50.5078,6.74219 50.2109,7.07031 C49.9141,7.39844 49.7656,7.90104 49.7656,8.57813 L49.7656,12 L49.1406,12 L49.1406,8.10938 C49.1406,7.58854 49.0208,7.20313 48.7813,6.95313 C48.5417,6.70313 48.224,6.57813 47.8281,6.57813 C47.2656,6.57813 46.8359,6.75 46.5391,7.09375 C46.2422,7.4375 46.0938,7.96354 46.0938,8.67188 L46.0938,12 L45.4688,12 L45.4688,6.14063 L45.9688,6.14063 L46.0625,7.07813 L46.1094,7.07813 C46.2552,6.78646 46.4766,6.53906 46.7734,6.33594 C47.0703,6.13281 47.4479,6.03125 47.9063,6.03125 C48.3333,6.03125 48.6927,6.125 48.9844,6.3125 C49.276,6.5 49.4844,6.77083 49.6094,7.125 L49.6563,7.125 C49.8229,6.78125 50.0729,6.51302 50.4063,6.32031 C50.7396,6.1276 51.1302,6.03125 51.5781,6.03125 M57.3906,12.1094 C56.6094,12.1094 56.0078,11.8594 55.5859,11.3594 C55.1641,10.8594 54.9531,10.1146 54.9531,9.125 C54.9531,8.125 55.1745,7.35938 55.6172,6.82813 C56.0599,6.29688 56.6719,6.03125 57.4531,6.03125 C57.9427,6.03125 58.3411,6.14063 58.6484,6.35938 C58.9557,6.57813 59.1823,6.83854 59.3281,7.14063 L59.375,7.14063 C59.3646,6.97396 59.3542,6.78646 59.3438,6.57813 C59.3333,6.36979 59.3281,6.17708 59.3281,6 L59.3281,3.64063 L59.9688,3.64063 L59.9688,12 L59.4531,12 L59.3594,10.9844 L59.3281,10.9844 C59.1823,11.2969 58.9531,11.5625 58.6406,11.7813 C58.3281,12 57.9115,12.1094 57.3906,12.1094 M57.4688,11.5781 C58.1458,11.5781 58.6276,11.3724 58.9141,10.9609 C59.2005,10.5495 59.3438,9.95313 59.3438,9.17188 L59.3438,9.07813 C59.3438,8.26563 59.2031,7.64583 58.9219,7.21875 C58.6406,6.79167 58.1719,6.57813 57.5156,6.57813 C56.8906,6.57813 56.4167,6.79948 56.0938,7.24219 C55.7708,7.6849 55.6094,8.31771 55.6094,9.14063 C55.6094,9.93229 55.763,10.5365 56.0703,10.9531 C56.3776,11.3698 56.8438,11.5781 57.4688,11.5781 "/>
</g>

<g fill="none" stroke="#000000" stroke-opacity="1" stroke-width="1" stroke-linecap="square" stroke-linejoin="bevel" transform="matrix(2,0,0,2,422.852,74)"
font-family="sans" font-size="11" font-weight="100" font-style="normal" 
>
</g>

<g fill="none" stroke="#000000" stroke-opacity="1" stroke-width="1" stroke-linecap="square" stroke-linejoin="bevel" transform="matrix(2,0,0,2,422.852,74)"
font-family="Sans Serif" font-size="9" font-weight="400" font-style="normal" 
>
</g>

<g fill="none" stroke="#000000" stroke-opacity="1" stroke-width="1" stroke-linecap="square" stroke-linejoin="bevel" transform="matrix(2,0,0,2,-0.0016,180)"
font-family="Sans Serif" font-size="9" font-weight="400" font-style="normal" 
>
</g>

<g fill="none" stroke="#000000" stroke-opacity="1" stroke-width="1" stroke-linecap="square" stroke-linejoin="bevel" transform="matrix(2,0,0,2,-0.0016,180)"
font-family="Sans Serif" font-size="9" font-weight="400" font-style="normal" 
>
</g>

<g fill="none" stroke="#000000" stroke-opacity="1" stroke-width="1" stroke-linecap="square" stroke-linejoin="bevel" transform="matrix(2,0,0,2,-0.0016,180)"
font-family="Sans Serif" font-size="9" font-weight="400" font-style="normal" 
>
</g>

<g fill="none" stroke="#000000" stroke-opacity="1" stroke-width="1" stroke-linecap="square" stroke-linejoin="round" transform="matrix(2,0,0,2,-0.0016,180)"
font-family="Sans Serif" font-size="9" font-weight="400" font-style="normal" 
>
<ellipse cx="362.88" cy="-45" rx="64.4944" ry="17.5"/>
</g>

<g fill="none" stroke="#000000" stroke-opacity="1" stroke-width="1" stroke-linecap="square" stroke-linejoin="bevel" transform="matrix(2,0,0,2,-0.0016,180)"
font-family="Sans Serif" font-size="9" font-weight="400" font-style="normal" 
>
</g>

<g fill="none" stroke="#000000" stroke-opacity="1" stroke-width="1" stroke-linecap="square" stroke-linejoin="bevel" transform="matrix(2,0,0,2,649.274,74)"
font-family="Sans Serif" font-size="9" font-weight="400" font-style="normal" 
>
</g>

<g fill="none" stroke="#000000" stroke-opacity="1" stroke-width="1" stroke-linecap="square" stroke-linejoin="bevel" transform="matrix(2,0,0,2,649.274,74)"
font-family="sans" font-size="11" font-weight="100" font-style="normal" 
>
</g>

<g fill="#000000" fill-opacity="1" stroke="#000000" stroke-opacity="1" stroke-width="1" stroke-linecap="square" stroke-linejoin="round" transform="matrix(2,0,0,2,649.274,74)"
font-family="sans" font-size="11" font-weight="100" font-style="normal" 
>
<path vector-effect="none" fill-rule="nonzero" d="M3.70313,4.14063 L0.765625,12 L0.125,12 L3.0625,4.14063 L3.70313,4.14063 M7.125,12.1094 C6.27083,12.1094 5.60938,11.8464 5.14063,11.3203 C4.67188,10.7943 4.4375,10.0573 4.4375,9.10938 C4.4375,8.44271 4.55469,7.88281 4.78906,7.42969 C5.02344,6.97656 5.35156,6.63021 5.77344,6.39063 C6.19531,6.15104 6.6875,6.03125 7.25,6.03125 C7.53125,6.03125 7.79688,6.05729 8.04688,6.10938 C8.29688,6.16146 8.51563,6.23438 8.70313,6.32813 L8.53125,6.85938 C8.33333,6.77604 8.11979,6.71094 7.89063,6.66406 C7.66146,6.61719 7.44792,6.59375 7.25,6.59375 C6.55208,6.59375 6.01823,6.81771 5.64844,7.26563 C5.27865,7.71354 5.09375,8.32292 5.09375,9.09375 C5.09375,9.83333 5.25781,10.4271 5.58594,10.875 C5.91406,11.3229 6.42708,11.5469 7.125,11.5469 C7.40625,11.5469 7.67708,11.5182 7.9375,11.4609 C8.19792,11.4036 8.42708,11.3281 8.625,11.2344 L8.625,11.7969 C8.4375,11.8906 8.22135,11.9661 7.97656,12.0234 C7.73177,12.0807 7.44792,12.1094 7.125,12.1094 M10.6406,6.3125 C10.6406,6.46875 10.638,6.61719 10.6328,6.75781 C10.6276,6.89844 10.6146,7.03125 10.5938,7.15625 L10.6406,7.15625 C10.7969,6.83333 11.0417,6.5651 11.375,6.35156 C11.7083,6.13802 12.125,6.03125 12.625,6.03125 C13.3021,6.03125 13.8151,6.20573 14.1641,6.55469 C14.513,6.90365 14.6875,7.44271 14.6875,8.17188 L14.6875,12 L14.0781,12 L14.0781,8.21875 C14.0781,7.65625 13.9479,7.24219 13.6875,6.97656 C13.4271,6.71094 13.0521,6.57813 12.5625,6.57813 C11.2813,6.57813 10.6406,7.32292 10.6406,8.8125 L10.6406,12 L10.0156,12 L10.0156,3.64063 L10.6406,3.64063 L10.6406,6.3125 M18.625,6.04688 C19.2917,6.04688 19.7865,6.20833 20.1094,6.53125 C20.4323,6.85417 20.5938,7.36458 20.5938,8.0625 L20.5938,12 L20.1094,12 L20,11.0156 L19.9688,11.0156 C19.7604,11.3385 19.5026,11.6016 19.1953,11.8047 C18.888,12.0078 18.4635,12.1094 17.9219,12.1094 C17.3594,12.1094 16.9167,11.9688 16.5938,11.6875 C16.2708,11.4063 16.1094,11 16.1094,10.4688 C16.1094,9.88542 16.349,9.4401 16.8281,9.13281 C17.3073,8.82552 18,8.65625 18.9063,8.625 L19.9688,8.5625 L19.9688,8.15625 C19.9688,7.58333 19.8542,7.17708 19.625,6.9375 C19.3958,6.69792 19.0573,6.57813 18.6094,6.57813 C18.3073,6.57813 18.0182,6.61719 17.7422,6.69531 C17.4661,6.77344 17.1875,6.88021 16.9063,7.01563 L16.7031,6.51563 C16.9844,6.38021 17.2891,6.26823 17.6172,6.17969 C17.9453,6.09115 18.2813,6.04688 18.625,6.04688 M18.9844,9.07813 C18.2344,9.11979 17.6771,9.2526 17.3125,9.47656 C16.9479,9.70052 16.7656,10.0313 16.7656,10.4688 C16.7656,10.8333 16.8776,11.1094 17.1016,11.2969 C17.3255,11.4844 17.6354,11.5781 18.0313,11.5781 C18.6458,11.5781 19.1224,11.4036 19.4609,11.0547 C19.7995,10.7057 19.9688,10.224 19.9688,9.60938 L19.9688,9.04688 L18.9844,9.07813 M24.7969,12.1094 C23.9427,12.1094 23.2813,11.8464 22.8125,11.3203 C22.3438,10.7943 22.1094,10.0573 22.1094,9.10938 C22.1094,8.44271 22.2266,7.88281 22.4609,7.42969 C22.6953,6.97656 23.0234,6.63021 23.4453,6.39063 C23.8672,6.15104 24.3594,6.03125 24.9219,6.03125 C25.2031,6.03125 25.4688,6.05729 25.7188,6.10938 C25.9688,6.16146 26.1875,6.23438 26.375,6.32813 L26.2031,6.85938 C26.0052,6.77604 25.7917,6.71094 25.5625,6.66406 C25.3333,6.61719 25.1198,6.59375 24.9219,6.59375 C24.224,6.59375 23.6901,6.81771 23.3203,7.26563 C22.9505,7.71354 22.7656,8.32292 22.7656,9.09375 C22.7656,9.83333 22.9297,10.4271 23.2578,10.875 C23.5859,11.3229 24.099,11.5469 24.7969,11.5469 C25.0781,11.5469 25.349,11.5182 25.6094,11.4609 C25.8698,11.4036 26.099,11.3281 26.2969,11.2344 L26.2969,11.7969 C26.1094,11.8906 25.8932,11.9661 25.6484,12.0234 C25.4036,12.0807 25.1198,12.1094 24.7969,12.1094 M30.0938,6.04688 C30.3854,6.04688 30.651,6.07813 30.8906,6.14063 L30.7969,6.71875 C30.5573,6.65625 30.3125,6.625 30.0625,6.625 C29.5313,6.625 29.1068,6.82292 28.7891,7.21875 C28.4714,7.61458 28.3125,8.13542 28.3125,8.78125 L28.3125,12 L27.6875,12 L27.6875,6.14063 L28.2188,6.14063 L28.2813,7.23438 L28.3125,7.23438 C28.4583,6.90104 28.6823,6.61979 28.9844,6.39063 C29.2865,6.16146 29.6563,6.04688 30.0938,6.04688 M33.8594,6.04688 C34.526,6.04688 35.0208,6.20833 35.3438,6.53125 C35.6667,6.85417 35.8281,7.36458 35.8281,8.0625 L35.8281,12 L35.3438,12 L35.2344,11.0156 L35.2031,11.0156 C34.9948,11.3385 34.737,11.6016 34.4297,11.8047 C34.1224,12.0078 33.6979,12.1094 33.1563,12.1094 C32.5938,12.1094 32.151,11.9688 31.8281,11.6875 C31.5052,11.4063 31.3438,11 31.3438,10.4688 C31.3438,9.88542 31.5833,9.4401 32.0625,9.13281 C32.5417,8.82552 33.2344,8.65625 34.1406,8.625 L35.2031,8.5625 L35.2031,8.15625 C35.2031,7.58333 35.0885,7.17708 34.8594,6.9375 C34.6302,6.69792 34.2917,6.57813 33.8438,6.57813 C33.5417,6.57813 33.2526,6.61719 32.9766,6.69531 C32.7005,6.77344 32.4219,6.88021 32.1406,7.01563 L31.9375,6.51563 C32.2188,6.38021 32.5234,6.26823 32.8516,6.17969 C33.1797,6.09115 33.5156,6.04688 33.8594,6.04688 M34.2188,9.07813 C33.4688,9.11979 32.9115,9.2526 32.5469,9.47656 C32.1823,9.70052 32,10.0313 32,10.4688 C32,10.8333 32.112,11.1094 32.3359,11.2969 C32.5599,11.4844 32.8698,11.5781 33.2656,11.5781 C33.8802,11.5781 34.3568,11.4036 34.6953,11.0547 C35.0339,10.7057 35.2031,10.224 35.2031,9.60938 L35.2031,9.04688 L34.2188,9.07813 M41.375,10.4531 C41.375,10.974 41.1771,11.3802 40.7813,11.6719 C40.3854,11.9635 39.8281,12.1094 39.1094,12.1094 C38.6927,12.1094 38.3281,12.0755 38.0156,12.0078 C37.7031,11.9401 37.4375,11.849 37.2188,11.7344 L37.2188,11.125 C37.4792,11.2604 37.7734,11.3698 38.1016,11.4531 C38.4297,11.5365 38.7656,11.5781 39.1094,11.5781 C39.6823,11.5781 40.099,11.4818 40.3594,11.2891 C40.6198,11.0964 40.75,10.8333 40.75,10.5 C40.75,10.1771 40.6146,9.92708 40.3438,9.75 C40.0729,9.57292 39.6771,9.39583 39.1563,9.21875 C38.7813,9.09375 38.4583,8.96615 38.1875,8.83594 C37.9167,8.70573 37.7031,8.54167 37.5469,8.34375 C37.3906,8.14583 37.3125,7.875 37.3125,7.53125 C37.3125,7.0625 37.5026,6.69531 37.8828,6.42969 C38.263,6.16406 38.776,6.03125 39.4219,6.03125 C39.7656,6.03125 40.0911,6.0651 40.3984,6.13281 C40.7057,6.20052 40.9844,6.29167 41.2344,6.40625 L41.0156,6.92188 C40.7865,6.82813 40.5286,6.74479 40.2422,6.67188 C39.9557,6.59896 39.6667,6.5625 39.375,6.5625 C38.9167,6.5625 38.5599,6.64323 38.3047,6.80469 C38.0495,6.96615 37.9219,7.20313 37.9219,7.51563 C37.9219,7.74479 37.9844,7.92708 38.1094,8.0625 C38.2344,8.19792 38.4141,8.3151 38.6484,8.41406 C38.8828,8.51302 39.1667,8.61979 39.5,8.73438 C39.8542,8.85938 40.1693,8.98698 40.4453,9.11719 C40.7214,9.2474 40.9453,9.41667 41.1172,9.625 C41.2891,9.83333 41.375,10.1094 41.375,10.4531 M46.5,13.4844 L41.8594,13.4844 L41.8594,12.9844 L46.5,12.9844 L46.5,13.4844 M49.5313,12.1094 C48.75,12.1094 48.1484,11.8594 47.7266,11.3594 C47.3047,10.8594 47.0938,10.1146 47.0938,9.125 C47.0938,8.125 47.3151,7.35938 47.7578,6.82813 C48.2005,6.29688 48.8125,6.03125 49.5938,6.03125 C50.0833,6.03125 50.4818,6.14063 50.7891,6.35938 C51.0964,6.57813 51.3229,6.83854 51.4688,7.14063 L51.5156,7.14063 C51.5052,6.97396 51.4948,6.78646 51.4844,6.57813 C51.474,6.36979 51.4688,6.17708 51.4688,6 L51.4688,3.64063 L52.1094,3.64063 L52.1094,12 L51.5938,12 L51.5,10.9844 L51.4688,10.9844 C51.3229,11.2969 51.0938,11.5625 50.7813,11.7813 C50.4688,12 50.0521,12.1094 49.5313,12.1094 M49.6094,11.5781 C50.2865,11.5781 50.7682,11.3724 51.0547,10.9609 C51.3411,10.5495 51.4844,9.95313 51.4844,9.17188 L51.4844,9.07813 C51.4844,8.26563 51.3438,7.64583 51.0625,7.21875 C50.7813,6.79167 50.3125,6.57813 49.6563,6.57813 C49.0313,6.57813 48.5573,6.79948 48.2344,7.24219 C47.9115,7.6849 47.75,8.31771 47.75,9.14063 C47.75,9.93229 47.9036,10.5365 48.2109,10.9531 C48.5182,11.3698 48.9844,11.5781 49.6094,11.5781 M56.4219,6.04688 C56.7135,6.04688 56.9792,6.07813 57.2188,6.14063 L57.125,6.71875 C56.8854,6.65625 56.6406,6.625 56.3906,6.625 C55.8594,6.625 55.4349,6.82292 55.1172,7.21875 C54.7995,7.61458 54.6406,8.13542 54.6406,8.78125 L54.6406,12 L54.0156,12 L54.0156,6.14063 L54.5469,6.14063 L54.6094,7.23438 L54.6406,7.23438 C54.7865,6.90104 55.0104,6.61979 55.3125,6.39063 C55.6146,6.16146 55.9844,6.04688 56.4219,6.04688 M58.6563,3.98438 C58.9479,3.98438 59.0938,4.14063 59.0938,4.45313 C59.0938,4.77604 58.9479,4.9375 58.6563,4.9375 C58.375,4.9375 58.2344,4.77604 58.2344,4.45313 C58.2344,4.14063 58.375,3.98438 58.6563,3.98438 M58.9688,6.14063 L58.9688,12 L58.3438,12 L58.3438,6.14063 L58.9688,6.14063 M62.1875,12 L59.9375,6.14063 L60.6094,6.14063 L62.0625,10.0313 C62.1458,10.2708 62.2266,10.5078 62.3047,10.7422 C62.3828,10.9766 62.4479,11.1875 62.5,11.375 L62.5313,11.375 C62.5833,11.1875 62.651,10.974 62.7344,10.7344 C62.8177,10.4948 62.901,10.2604 62.9844,10.0313 L64.4375,6.14063 L65.0938,6.14063 L62.8594,12 L62.1875,12 M68.2813,6.03125 C68.7813,6.03125 69.1979,6.14844 69.5313,6.38281 C69.8646,6.61719 70.1172,6.9349 70.2891,7.33594 C70.4609,7.73698 70.5469,8.19792 70.5469,8.71875 L70.5469,9.15625 L66.375,9.15625 C66.375,9.92708 66.5547,10.5208 66.9141,10.9375 C67.2734,11.3542 67.7917,11.5625 68.4688,11.5625 C68.8333,11.5625 69.151,11.5313 69.4219,11.4688 C69.6927,11.4063 69.9896,11.3021 70.3125,11.1563 L70.3125,11.7344 C70.0208,11.8698 69.7318,11.9661 69.4453,12.0234 C69.1589,12.0807 68.8281,12.1094 68.4531,12.1094 C67.5677,12.1094 66.8906,11.8411 66.4219,11.3047 C65.9531,10.7682 65.7188,10.0417 65.7188,9.125 C65.7188,8.52083 65.8203,7.98958 66.0234,7.53125 C66.2266,7.07292 66.5182,6.70833 66.8984,6.4375 C67.2786,6.16667 67.7396,6.03125 68.2813,6.03125 M68.2656,6.5625 C67.7344,6.5625 67.3021,6.74219 66.9688,7.10156 C66.6354,7.46094 66.4427,7.97396 66.3906,8.64063 L69.9063,8.64063 C69.9063,8.01563 69.7708,7.51302 69.5,7.13281 C69.2292,6.7526 68.8177,6.5625 68.2656,6.5625 M74.5313,6.04688 C74.8229,6.04688 75.0885,6.07813 75.3281,6.14063 L75.2344,6.71875 C74.9948,6.65625 74.75,6.625 74.5,6.625 C73.9688,6.625 73.5443,6.82292 73.2266,7.21875 C72.9089,7.61458 72.75,8.13542 72.75,8.78125 L72.75,12 L72.125,12 L72.125,6.14063 L72.6563,6.14063 L72.7188,7.23438 L72.75,7.23438 C72.8958,6.90104 73.1198,6.61979 73.4219,6.39063 C73.724,6.16146 74.0938,6.04688 74.5313,6.04688 "/>
</g>

<g fill="none" stroke="#000000" stroke-opacity="1" stroke-width="1" stroke-linecap="square" stroke-linejoin="bevel" transform="matrix(2,0,0,2,649.274,74)"
font-family="sans" font-size="11" font-weight="100" font-style="normal" 
>
</g>

<g fill="none" stroke="#000000" stroke-opacity="1" stroke-width="1" stroke-linecap="square" stroke-linejoin="bevel" transform="matrix(2,0,0,2,649.274,74)"
font-family="Sans Serif" font-size="9" font-weight="400" font-style="normal" 
>
</g>

<g fill="none" stroke="#000000" stroke-opacity="1" stroke-width="1" stroke-linecap="square" stroke-linejoin="bevel" transform="matrix(2,0,0,2,-0.0016,180)"
font-family="Sans Serif" font-size="9" font-weight="400" font-style="normal" 
>
</g>

<g fill="none" stroke="#000000" stroke-opacity="1" stroke-width="1" stroke-linecap="square" stroke-linejoin="bevel" transform="matrix(2,0,0,2,-0.0016,180)"
font-family="Sans Serif" font-size="9" font-weight="400" font-style="normal" 
>
</g>

<g fill="none" stroke="#000000" stroke-opacity="1" stroke-width="1" stroke-linecap="square" stroke-linejoin="bevel" transform="matrix(2,0,0,2,-0.0016,180)"
font-family="Sans Serif" font-size="9" font-weight="400" font-style="normal" 
>
</g>

<g fill="none" stroke="#000000" stroke-opacity="1" stroke-width="1" stroke-linecap="square" stroke-linejoin="round" transform="matrix(2,0,0,2,-0.0016,180)"
font-family="Sans Serif" font-size="9" font-weight="400" font-style="normal" 
>
<rect x="445.37" y="-35.5" width="89" height="35"/>
</g>

<g fill="none" stroke="#000000" stroke-opacity="1" stroke-width="1" stroke-linecap="square" stroke-linejoin="bevel" transform="matrix(2,0,0,2,-0.0016,180)"
font-family="Sans Serif" font-size="9" font-weight="400" font-style="normal" 
>
</g>

<g fill="none" stroke="#000000" stroke-opacity="1" stroke-width="1" stroke-linecap="square" stroke-linejoin="bevel" transform="matrix(2,0,0,2,910.738,128)"
font-family="Sans Serif" font-size="9" font-weight="400" font-style="normal" 
>
</g>

<g fill="none" stroke="#000000" stroke-opacity="1" stroke-width="1" stroke-linecap="square" stroke-linejoin="bevel" transform="matrix(2,0,0,2,910.738,128)"
font-family="sans" font-size="11" font-weight="100" font-style="normal" 
>
</g>

<g fill="#000000" fill-opacity="1" stroke="#000000" stroke-opacity="1" stroke-width="1" stroke-linecap="square" stroke-linejoin="round" transform="matrix(2,0,0,2,910.738,128)"
font-family="sans" font-size="11" font-weight="100" font-style="normal" 
>
<path vector-effect="none" fill-rule="nonzero" d="M3.70313,4.14063 L0.765625,12 L0.125,12 L3.0625,4.14063 L3.70313,4.14063 M10.8906,6.03125 C11.474,6.03125 11.9297,6.19792 12.2578,6.53125 C12.5859,6.86458 12.75,7.38542 12.75,8.09375 L12.75,12 L12.125,12 L12.125,8.10938 C12.125,7.58854 12.0078,7.20313 11.7734,6.95313 C11.5391,6.70313 11.2188,6.57813 10.8125,6.57813 C10.25,6.57813 9.82031,6.74219 9.52344,7.07031 C9.22656,7.39844 9.07813,7.90104 9.07813,8.57813 L9.07813,12 L8.45313,12 L8.45313,8.10938 C8.45313,7.58854 8.33333,7.20313 8.09375,6.95313 C7.85417,6.70313 7.53646,6.57813 7.14063,6.57813 C6.57813,6.57813 6.14844,6.75 5.85156,7.09375 C5.55469,7.4375 5.40625,7.96354 5.40625,8.67188 L5.40625,12 L4.78125,12 L4.78125,6.14063 L5.28125,6.14063 L5.375,7.07813 L5.42188,7.07813 C5.56771,6.78646 5.78906,6.53906 6.08594,6.33594 C6.38281,6.13281 6.76042,6.03125 7.21875,6.03125 C7.64583,6.03125 8.00521,6.125 8.29688,6.3125 C8.58854,6.5 8.79688,6.77083 8.92188,7.125 L8.96875,7.125 C9.13542,6.78125 9.38542,6.51302 9.71875,6.32031 C10.0521,6.1276 10.4427,6.03125 10.8906,6.03125 M19.5,9.0625 C19.5,9.67708 19.401,10.2109 19.2031,10.6641 C19.0052,11.1172 18.7083,11.4714 18.3125,11.7266 C17.9167,11.9818 17.4375,12.1094 16.875,12.1094 C16.3333,12.1094 15.8672,11.9844 15.4766,11.7344 C15.0859,11.4844 14.7865,11.1302 14.5781,10.6719 C14.3698,10.2135 14.2656,9.67708 14.2656,9.0625 C14.2656,8.11458 14.5,7.3724 14.9688,6.83594 C15.4375,6.29948 16.0885,6.03125 16.9219,6.03125 C17.474,6.03125 17.9427,6.15885 18.3281,6.41406 C18.7135,6.66927 19.0052,7.02344 19.2031,7.47656 C19.401,7.92969 19.5,8.45833 19.5,9.0625 M14.9219,9.0625 C14.9219,9.82292 15.0807,10.4323 15.3984,10.8906 C15.7161,11.349 16.2135,11.5781 16.8906,11.5781 C17.5677,11.5781 18.0651,11.3464 18.3828,10.8828 C18.7005,10.4193 18.8594,9.8125 18.8594,9.0625 C18.8594,8.58333 18.7917,8.15625 18.6563,7.78125 C18.5208,7.40625 18.3099,7.11198 18.0234,6.89844 C17.737,6.6849 17.3646,6.57813 16.9063,6.57813 C16.25,6.57813 15.7552,6.79688 15.4219,7.23438 C15.0885,7.67188 14.9219,8.28125 14.9219,9.0625 M22.75,11.5781 C22.9063,11.5781 23.0573,11.5651 23.2031,11.5391 C23.349,11.513 23.4792,11.4792 23.5938,11.4375 L23.5938,11.9375 C23.4792,11.9896 23.3411,12.0313 23.1797,12.0625 C23.0182,12.0938 22.849,12.1094 22.6719,12.1094 C22.1719,12.1094 21.7917,11.974 21.5313,11.7031 C21.2708,11.4323 21.1406,10.9896 21.1406,10.375 L21.1406,6.65625 L20.2656,6.65625 L20.2656,6.29688 L21.1406,6.09375 L21.3594,4.75 L21.7656,4.75 L21.7656,6.14063 L23.5625,6.14063 L23.5625,6.65625 L21.7656,6.65625 L21.7656,10.3438 C21.7656,11.1667 22.0938,11.5781 22.75,11.5781 M29.7188,9.0625 C29.7188,9.67708 29.6198,10.2109 29.4219,10.6641 C29.224,11.1172 28.9271,11.4714 28.5313,11.7266 C28.1354,11.9818 27.6563,12.1094 27.0938,12.1094 C26.5521,12.1094 26.0859,11.9844 25.6953,11.7344 C25.3047,11.4844 25.0052,11.1302 24.7969,10.6719 C24.5885,10.2135 24.4844,9.67708 24.4844,9.0625 C24.4844,8.11458 24.7188,7.3724 25.1875,6.83594 C25.6563,6.29948 26.3073,6.03125 27.1406,6.03125 C27.6927,6.03125 28.1615,6.15885 28.5469,6.41406 C28.9323,6.66927 29.224,7.02344 29.4219,7.47656 C29.6198,7.92969 29.7188,8.45833 29.7188,9.0625 M25.1406,9.0625 C25.1406,9.82292 25.2995,10.4323 25.6172,10.8906 C25.9349,11.349 26.4323,11.5781 27.1094,11.5781 C27.7865,11.5781 28.2839,11.3464 28.6016,10.8828 C28.9193,10.4193 29.0781,9.8125 29.0781,9.0625 C29.0781,8.58333 29.0104,8.15625 28.875,7.78125 C28.7396,7.40625 28.5286,7.11198 28.2422,6.89844 C27.9557,6.6849 27.5833,6.57813 27.125,6.57813 C26.4688,6.57813 25.974,6.79688 25.6406,7.23438 C25.3073,7.67188 25.1406,8.28125 25.1406,9.0625 M33.7188,6.04688 C34.0104,6.04688 34.276,6.07813 34.5156,6.14063 L34.4219,6.71875 C34.1823,6.65625 33.9375,6.625 33.6875,6.625 C33.1563,6.625 32.7318,6.82292 32.4141,7.21875 C32.0964,7.61458 31.9375,8.13542 31.9375,8.78125 L31.9375,12 L31.3125,12 L31.3125,6.14063 L31.8438,6.14063 L31.9063,7.23438 L31.9375,7.23438 C32.0833,6.90104 32.3073,6.61979 32.6094,6.39063 C32.9115,6.16146 33.2813,6.04688 33.7188,6.04688 M39.2969,13.4844 L34.6563,13.4844 L34.6563,12.9844 L39.2969,12.9844 L39.2969,13.4844 M43.9219,10.4531 C43.9219,10.974 43.724,11.3802 43.3281,11.6719 C42.9323,11.9635 42.375,12.1094 41.6563,12.1094 C41.2396,12.1094 40.875,12.0755 40.5625,12.0078 C40.25,11.9401 39.9844,11.849 39.7656,11.7344 L39.7656,11.125 C40.026,11.2604 40.3203,11.3698 40.6484,11.4531 C40.9766,11.5365 41.3125,11.5781 41.6563,11.5781 C42.2292,11.5781 42.6458,11.4818 42.9063,11.2891 C43.1667,11.0964 43.2969,10.8333 43.2969,10.5 C43.2969,10.1771 43.1615,9.92708 42.8906,9.75 C42.6198,9.57292 42.224,9.39583 41.7031,9.21875 C41.3281,9.09375 41.0052,8.96615 40.7344,8.83594 C40.4635,8.70573 40.25,8.54167 40.0938,8.34375 C39.9375,8.14583 39.8594,7.875 39.8594,7.53125 C39.8594,7.0625 40.0495,6.69531 40.4297,6.42969 C40.8099,6.16406 41.3229,6.03125 41.9688,6.03125 C42.3125,6.03125 42.638,6.0651 42.9453,6.13281 C43.2526,6.20052 43.5313,6.29167 43.7813,6.40625 L43.5625,6.92188 C43.3333,6.82813 43.0755,6.74479 42.7891,6.67188 C42.5026,6.59896 42.2135,6.5625 41.9219,6.5625 C41.4635,6.5625 41.1068,6.64323 40.8516,6.80469 C40.5964,6.96615 40.4688,7.20313 40.4688,7.51563 C40.4688,7.74479 40.5313,7.92708 40.6563,8.0625 C40.7813,8.19792 40.9609,8.3151 41.1953,8.41406 C41.4297,8.51302 41.7135,8.61979 42.0469,8.73438 C42.401,8.85938 42.7161,8.98698 42.9922,9.11719 C43.2682,9.2474 43.4922,9.41667 43.6641,9.625 C43.8359,9.83333 43.9219,10.1094 43.9219,10.4531 M47.0469,11.5781 C47.2031,11.5781 47.3542,11.5651 47.5,11.5391 C47.6458,11.513 47.776,11.4792 47.8906,11.4375 L47.8906,11.9375 C47.776,11.9896 47.638,12.0313 47.4766,12.0625 C47.3151,12.0938 47.1458,12.1094 46.9688,12.1094 C46.4688,12.1094 46.0885,11.974 45.8281,11.7031 C45.5677,11.4323 45.4375,10.9896 45.4375,10.375 L45.4375,6.65625 L44.5625,6.65625 L44.5625,6.29688 L45.4375,6.09375 L45.6563,4.75 L46.0625,4.75 L46.0625,6.14063 L47.8594,6.14063 L47.8594,6.65625 L46.0625,6.65625 L46.0625,10.3438 C46.0625,11.1667 46.3906,11.5781 47.0469,11.5781 M51.1875,6.04688 C51.8542,6.04688 52.349,6.20833 52.6719,6.53125 C52.9948,6.85417 53.1563,7.36458 53.1563,8.0625 L53.1563,12 L52.6719,12 L52.5625,11.0156 L52.5313,11.0156 C52.3229,11.3385 52.0651,11.6016 51.7578,11.8047 C51.4505,12.0078 51.026,12.1094 50.4844,12.1094 C49.9219,12.1094 49.4792,11.9688 49.1563,11.6875 C48.8333,11.4063 48.6719,11 48.6719,10.4688 C48.6719,9.88542 48.9115,9.4401 49.3906,9.13281 C49.8698,8.82552 50.5625,8.65625 51.4688,8.625 L52.5313,8.5625 L52.5313,8.15625 C52.5313,7.58333 52.4167,7.17708 52.1875,6.9375 C51.9583,6.69792 51.6198,6.57813 51.1719,6.57813 C50.8698,6.57813 50.5807,6.61719 50.3047,6.69531 C50.0286,6.77344 49.75,6.88021 49.4688,7.01563 L49.2656,6.51563 C49.5469,6.38021 49.8516,6.26823 50.1797,6.17969 C50.5078,6.09115 50.8438,6.04688 51.1875,6.04688 M51.5469,9.07813 C50.7969,9.11979 50.2396,9.2526 49.875,9.47656 C49.5104,9.70052 49.3281,10.0313 49.3281,10.4688 C49.3281,10.8333 49.4401,11.1094 49.6641,11.2969 C49.888,11.4844 50.1979,11.5781 50.5938,11.5781 C51.2083,11.5781 51.6849,11.4036 52.0234,11.0547 C52.362,10.7057 52.5313,10.224 52.5313,9.60938 L52.5313,9.04688 L51.5469,9.07813 M56.6719,11.5781 C56.8281,11.5781 56.9792,11.5651 57.125,11.5391 C57.2708,11.513 57.401,11.4792 57.5156,11.4375 L57.5156,11.9375 C57.401,11.9896 57.263,12.0313 57.1016,12.0625 C56.9401,12.0938 56.7708,12.1094 56.5938,12.1094 C56.0938,12.1094 55.7135,11.974 55.4531,11.7031 C55.1927,11.4323 55.0625,10.9896 55.0625,10.375 L55.0625,6.65625 L54.1875,6.65625 L54.1875,6.29688 L55.0625,6.09375 L55.2813,4.75 L55.6875,4.75 L55.6875,6.14063 L57.4844,6.14063 L57.4844,6.65625 L55.6875,6.65625 L55.6875,10.3438 C55.6875,11.1667 56.0156,11.5781 56.6719,11.5781 M60.9688,6.03125 C61.4688,6.03125 61.8854,6.14844 62.2188,6.38281 C62.5521,6.61719 62.8047,6.9349 62.9766,7.33594 C63.1484,7.73698 63.2344,8.19792 63.2344,8.71875 L63.2344,9.15625 L59.0625,9.15625 C59.0625,9.92708 59.2422,10.5208 59.6016,10.9375 C59.9609,11.3542 60.4792,11.5625 61.1563,11.5625 C61.5208,11.5625 61.8385,11.5313 62.1094,11.4688 C62.3802,11.4063 62.6771,11.3021 63,11.1563 L63,11.7344 C62.7083,11.8698 62.4193,11.9661 62.1328,12.0234 C61.8464,12.0807 61.5156,12.1094 61.1406,12.1094 C60.2552,12.1094 59.5781,11.8411 59.1094,11.3047 C58.6406,10.7682 58.4063,10.0417 58.4063,9.125 C58.4063,8.52083 58.5078,7.98958 58.7109,7.53125 C58.9141,7.07292 59.2057,6.70833 59.5859,6.4375 C59.9661,6.16667 60.4271,6.03125 60.9688,6.03125 M60.9531,6.5625 C60.4219,6.5625 59.9896,6.74219 59.6563,7.10156 C59.3229,7.46094 59.1302,7.97396 59.0781,8.64063 L62.5938,8.64063 C62.5938,8.01563 62.4583,7.51302 62.1875,7.13281 C61.9167,6.7526 61.5052,6.5625 60.9531,6.5625 M68.5,10.4531 C68.5,10.974 68.3021,11.3802 67.9063,11.6719 C67.5104,11.9635 66.9531,12.1094 66.2344,12.1094 C65.8177,12.1094 65.4531,12.0755 65.1406,12.0078 C64.8281,11.9401 64.5625,11.849 64.3438,11.7344 L64.3438,11.125 C64.6042,11.2604 64.8984,11.3698 65.2266,11.4531 C65.5547,11.5365 65.8906,11.5781 66.2344,11.5781 C66.8073,11.5781 67.224,11.4818 67.4844,11.2891 C67.7448,11.0964 67.875,10.8333 67.875,10.5 C67.875,10.1771 67.7396,9.92708 67.4688,9.75 C67.1979,9.57292 66.8021,9.39583 66.2813,9.21875 C65.9063,9.09375 65.5833,8.96615 65.3125,8.83594 C65.0417,8.70573 64.8281,8.54167 64.6719,8.34375 C64.5156,8.14583 64.4375,7.875 64.4375,7.53125 C64.4375,7.0625 64.6276,6.69531 65.0078,6.42969 C65.388,6.16406 65.901,6.03125 66.5469,6.03125 C66.8906,6.03125 67.2161,6.0651 67.5234,6.13281 C67.8307,6.20052 68.1094,6.29167 68.3594,6.40625 L68.1406,6.92188 C67.9115,6.82813 67.6536,6.74479 67.3672,6.67188 C67.0807,6.59896 66.7917,6.5625 66.5,6.5625 C66.0417,6.5625 65.6849,6.64323 65.4297,6.80469 C65.1745,6.96615 65.0469,7.20313 65.0469,7.51563 C65.0469,7.74479 65.1094,7.92708 65.2344,8.0625 C65.3594,8.19792 65.5391,8.3151 65.7734,8.41406 C66.0078,8.51302 66.2917,8.61979 66.625,8.73438 C66.9792,8.85938 67.2943,8.98698 67.5703,9.11719 C67.8464,9.2474 68.0703,9.41667 68.2422,9.625 C68.4141,9.83333 68.5,10.1094 68.5,10.4531 "/>
</g>

<g fill="none" stroke="#000000" stroke-opacity="1" stroke-width="1" stroke-linecap="square" stroke-linejoin="bevel" transform="matrix(2,0,0,2,910.738,128)"
font-family="sans" font-size="11" font-weight="100" font-style="normal" 
>
</g>

<g fill="none" stroke="#000000" stroke-opacity="1" stroke-width="1" stroke-linecap="square" stroke-linejoin="bevel" transform="matrix(2,0,0,2,910.738,128)"
font-family="Sans Serif" font-size="9" font-weight="400" font-style="normal" 
>
</g>

<g fill="none" stroke="#000000" stroke-opacity="1" stroke-width="1" stroke-linecap="square" stroke-linejoin="bevel" transform="matrix(2,0,0,2,-0.0016,180)"
font-family="Sans Serif" font-size="9" font-weight="400" font-style="normal" 
>
</g>

<g fill="none" stroke="#000000" stroke-opacity="1" stroke-width="1" stroke-linecap="square" stroke-linejoin="bevel" transform="matrix(2,0,0,2,-0.0016,180)"
font-family="Sans Serif" font-size="9" font-weight="400" font-style="normal" 
>
</g>

<g fill="none" stroke="#000000" stroke-opacity="1" stroke-width="1" stroke-linecap="square" stroke-linejoin="bevel" transform="matrix(2,0,0,2,-0.0016,180)"
font-family="Sans Serif" font-size="9" font-weight="400" font-style="normal" 
>
</g>

<g fill="none" stroke="#000000" stroke-opacity="1" stroke-width="1" stroke-linecap="square" stroke-linejoin="round" transform="matrix(2,0,0,2,-0.0016,180)"
font-family="Sans Serif" font-size="9" font-weight="400" font-style="normal" 
>
<ellipse cx="92.942" cy="-45" rx="92.4412" ry="17.5"/>
</g>

<g fill="none" stroke="#000000" stroke-opacity="1" stroke-width="1" stroke-linecap="square" stroke-linejoin="bevel" transform="matrix(2,0,0,2,-0.0016,180)"
font-family="Sans Serif" font-size="9" font-weight="400" font-style="normal" 
>
</g>

<g fill="none" stroke="#000000" stroke-opacity="1" stroke-width="1" stroke-linecap="square" stroke-linejoin="bevel" transform="matrix(2,0,0,2,69.6637,74)"
font-family="Sans Serif" font-size="9" font-weight="400" font-style="normal" 
>
</g>

<g fill="none" stroke="#000000" stroke-opacity="1" stroke-width="1" stroke-linecap="square" stroke-linejoin="bevel" transform="matrix(2,0,0,2,69.6637,74)"
font-family="sans" font-size="11" font-weight="100" font-style="normal" 
>
</g>

<g fill="#000000" fill-opacity="1" stroke="#000000" stroke-opacity="1" stroke-width="1" stroke-linecap="square" stroke-linejoin="round" transform="matrix(2,0,0,2,69.6637,74)"
font-family="sans" font-size="11" font-weight="100" font-style="normal" 
>
<path vector-effect="none" fill-rule="nonzero" d="M3.70313,4.14063 L0.765625,12 L0.125,12 L3.0625,4.14063 L3.70313,4.14063 M6.4375,11.5781 C6.59375,11.5781 6.74479,11.5651 6.89063,11.5391 C7.03646,11.513 7.16667,11.4792 7.28125,11.4375 L7.28125,11.9375 C7.16667,11.9896 7.02865,12.0313 6.86719,12.0625 C6.70573,12.0938 6.53646,12.1094 6.35938,12.1094 C5.85938,12.1094 5.47917,11.974 5.21875,11.7031 C4.95833,11.4323 4.82813,10.9896 4.82813,10.375 L4.82813,6.65625 L3.95313,6.65625 L3.95313,6.29688 L4.82813,6.09375 L5.04688,4.75 L5.45313,4.75 L5.45313,6.14063 L7.25,6.14063 L7.25,6.65625 L5.45313,6.65625 L5.45313,10.3438 C5.45313,11.1667 5.78125,11.5781 6.4375,11.5781 M10.7344,6.03125 C11.2344,6.03125 11.651,6.14844 11.9844,6.38281 C12.3177,6.61719 12.5703,6.9349 12.7422,7.33594 C12.9141,7.73698 13,8.19792 13,8.71875 L13,9.15625 L8.82813,9.15625 C8.82813,9.92708 9.00781,10.5208 9.36719,10.9375 C9.72656,11.3542 10.2448,11.5625 10.9219,11.5625 C11.2865,11.5625 11.6042,11.5313 11.875,11.4688 C12.1458,11.4063 12.4427,11.3021 12.7656,11.1563 L12.7656,11.7344 C12.474,11.8698 12.1849,11.9661 11.8984,12.0234 C11.612,12.0807 11.2813,12.1094 10.9063,12.1094 C10.0208,12.1094 9.34375,11.8411 8.875,11.3047 C8.40625,10.7682 8.17188,10.0417 8.17188,9.125 C8.17188,8.52083 8.27344,7.98958 8.47656,7.53125 C8.67969,7.07292 8.97135,6.70833 9.35156,6.4375 C9.73177,6.16667 10.1927,6.03125 10.7344,6.03125 M10.7188,6.5625 C10.1875,6.5625 9.75521,6.74219 9.42188,7.10156 C9.08854,7.46094 8.89583,7.97396 8.84375,8.64063 L12.3594,8.64063 C12.3594,8.01563 12.224,7.51302 11.9531,7.13281 C11.6823,6.7526 11.2708,6.5625 10.7188,6.5625 M15.2031,12 L14.5781,12 L14.5781,3.64063 L15.2031,3.64063 L15.2031,12 M19.3594,6.03125 C19.8594,6.03125 20.276,6.14844 20.6094,6.38281 C20.9427,6.61719 21.1953,6.9349 21.3672,7.33594 C21.5391,7.73698 21.625,8.19792 21.625,8.71875 L21.625,9.15625 L17.4531,9.15625 C17.4531,9.92708 17.6328,10.5208 17.9922,10.9375 C18.3516,11.3542 18.8698,11.5625 19.5469,11.5625 C19.9115,11.5625 20.2292,11.5313 20.5,11.4688 C20.7708,11.4063 21.0677,11.3021 21.3906,11.1563 L21.3906,11.7344 C21.099,11.8698 20.8099,11.9661 20.5234,12.0234 C20.237,12.0807 19.9063,12.1094 19.5313,12.1094 C18.6458,12.1094 17.9688,11.8411 17.5,11.3047 C17.0313,10.7682 16.7969,10.0417 16.7969,9.125 C16.7969,8.52083 16.8984,7.98958 17.1016,7.53125 C17.3047,7.07292 17.5964,6.70833 17.9766,6.4375 C18.3568,6.16667 18.8177,6.03125 19.3594,6.03125 M19.3438,6.5625 C18.8125,6.5625 18.3802,6.74219 18.0469,7.10156 C17.7135,7.46094 17.5208,7.97396 17.4688,8.64063 L20.9844,8.64063 C20.9844,8.01563 20.849,7.51302 20.5781,7.13281 C20.3073,6.7526 19.8958,6.5625 19.3438,6.5625 M28.0938,9.0625 C28.0938,9.67708 27.9948,10.2109 27.7969,10.6641 C27.599,11.1172 27.3021,11.4714 26.9063,11.7266 C26.5104,11.9818 26.0313,12.1094 25.4688,12.1094 C24.9271,12.1094 24.4609,11.9844 24.0703,11.7344 C23.6797,11.4844 23.3802,11.1302 23.1719,10.6719 C22.9635,10.2135 22.8594,9.67708 22.8594,9.0625 C22.8594,8.11458 23.0938,7.3724 23.5625,6.83594 C24.0313,6.29948 24.6823,6.03125 25.5156,6.03125 C26.0677,6.03125 26.5365,6.15885 26.9219,6.41406 C27.3073,6.66927 27.599,7.02344 27.7969,7.47656 C27.9948,7.92969 28.0938,8.45833 28.0938,9.0625 M23.5156,9.0625 C23.5156,9.82292 23.6745,10.4323 23.9922,10.8906 C24.3099,11.349 24.8073,11.5781 25.4844,11.5781 C26.1615,11.5781 26.6589,11.3464 26.9766,10.8828 C27.2943,10.4193 27.4531,9.8125 27.4531,9.0625 C27.4531,8.58333 27.3854,8.15625 27.25,7.78125 C27.1146,7.40625 26.9036,7.11198 26.6172,6.89844 C26.3307,6.6849 25.9583,6.57813 25.5,6.57813 C24.8438,6.57813 24.349,6.79688 24.0156,7.23438 C23.6823,7.67188 23.5156,8.28125 23.5156,9.0625 M32.3125,6.03125 C33.0625,6.03125 33.6458,6.28646 34.0625,6.79688 C34.4792,7.30729 34.6875,8.05729 34.6875,9.04688 C34.6875,10.0365 34.4714,10.7943 34.0391,11.3203 C33.6068,11.8464 33.0104,12.1094 32.25,12.1094 C31.7396,12.1094 31.3255,12 31.0078,11.7813 C30.6901,11.5625 30.4583,11.2969 30.3125,10.9844 L30.2656,10.9844 C30.2865,11.1719 30.2995,11.3724 30.3047,11.5859 C30.3099,11.7995 30.3125,12 30.3125,12.1875 L30.3125,14.5938 L29.6875,14.5938 L29.6875,6.14063 L30.2031,6.14063 L30.2813,7.23438 L30.3125,7.23438 C30.4583,6.92188 30.6927,6.64323 31.0156,6.39844 C31.3385,6.15365 31.7708,6.03125 32.3125,6.03125 M32.2344,6.57813 C31.5781,6.57813 31.0964,6.78385 30.7891,7.19531 C30.4818,7.60677 30.3229,8.19792 30.3125,8.96875 L30.3125,9.07813 C30.3125,9.91146 30.4661,10.5365 30.7734,10.9531 C31.0807,11.3698 31.5521,11.5781 32.1875,11.5781 C32.7917,11.5781 33.2526,11.3516 33.5703,10.8984 C33.888,10.4453 34.0469,9.82292 34.0469,9.03125 C34.0469,8.25 33.8932,7.64583 33.5859,7.21875 C33.2786,6.79167 32.8281,6.57813 32.2344,6.57813 M39.9219,13.4844 L35.2813,13.4844 L35.2813,12.9844 L39.9219,12.9844 L39.9219,13.4844 M41.4688,7.89063 C41.4688,8.11979 41.4661,8.36198 41.4609,8.61719 C41.4557,8.8724 41.4531,9.11979 41.4531,9.35938 L41.4688,9.35938 C41.5625,9.24479 41.6693,9.11458 41.7891,8.96875 C41.9089,8.82292 42.026,8.6875 42.1406,8.5625 L44.3594,6.14063 L45.1094,6.14063 L42.7969,8.65625 L45.2969,12 L44.5625,12 L42.3594,9.0625 L41.4688,9.96875 L41.4688,12 L40.8594,12 L40.8594,3.64063 L41.4688,3.64063 L41.4688,7.89063 M48.5,6.03125 C49,6.03125 49.4167,6.14844 49.75,6.38281 C50.0833,6.61719 50.3359,6.9349 50.5078,7.33594 C50.6797,7.73698 50.7656,8.19792 50.7656,8.71875 L50.7656,9.15625 L46.5938,9.15625 C46.5938,9.92708 46.7734,10.5208 47.1328,10.9375 C47.4922,11.3542 48.0104,11.5625 48.6875,11.5625 C49.0521,11.5625 49.3698,11.5313 49.6406,11.4688 C49.9115,11.4063 50.2083,11.3021 50.5313,11.1563 L50.5313,11.7344 C50.2396,11.8698 49.9505,11.9661 49.6641,12.0234 C49.3776,12.0807 49.0469,12.1094 48.6719,12.1094 C47.7865,12.1094 47.1094,11.8411 46.6406,11.3047 C46.1719,10.7682 45.9375,10.0417 45.9375,9.125 C45.9375,8.52083 46.0391,7.98958 46.2422,7.53125 C46.4453,7.07292 46.737,6.70833 47.1172,6.4375 C47.4974,6.16667 47.9583,6.03125 48.5,6.03125 M48.4844,6.5625 C47.9531,6.5625 47.5208,6.74219 47.1875,7.10156 C46.8542,7.46094 46.6615,7.97396 46.6094,8.64063 L50.125,8.64063 C50.125,8.01563 49.9896,7.51302 49.7188,7.13281 C49.4479,6.7526 49.0365,6.5625 48.4844,6.5625 M51.1719,6.14063 L51.8281,6.14063 L53.2188,9.78125 C53.3438,10.1042 53.4505,10.3932 53.5391,10.6484 C53.6276,10.9036 53.6927,11.1302 53.7344,11.3281 L53.7813,11.3281 C53.8854,10.9635 54.0573,10.4531 54.2969,9.79688 L55.6563,6.14063 L56.3281,6.14063 L53.6875,13.0313 C53.4896,13.5521 53.2552,13.9531 52.9844,14.2344 C52.7135,14.5156 52.3438,14.6563 51.875,14.6563 C51.7396,14.6563 51.6146,14.6484 51.5,14.6328 C51.3854,14.6172 51.2813,14.5885 51.1875,14.5469 L51.1875,14.0313 C51.2813,14.0521 51.3776,14.0729 51.4766,14.0938 C51.5755,14.1146 51.6875,14.125 51.8125,14.125 C52.1146,14.125 52.362,14.0286 52.5547,13.8359 C52.7474,13.6432 52.9219,13.349 53.0781,12.9531 L53.4531,11.9844 L51.1719,6.14063 M57.8906,5.95313 C57.8906,6.16146 57.888,6.38542 57.8828,6.625 C57.8776,6.86458 57.8698,7.05729 57.8594,7.20313 L57.8906,7.20313 C58.0365,6.86979 58.2786,6.59115 58.6172,6.36719 C58.9557,6.14323 59.3802,6.03125 59.8906,6.03125 C60.6406,6.03125 61.2266,6.28646 61.6484,6.79688 C62.0703,7.30729 62.2813,8.0625 62.2813,9.0625 C62.2813,9.98958 62.0703,10.7292 61.6484,11.2813 C61.2266,11.8333 60.6094,12.1094 59.7969,12.1094 C59.3073,12.1094 58.9063,12.0078 58.5938,11.8047 C58.2813,11.6016 58.0521,11.349 57.9063,11.0469 L57.8594,11.0469 L57.75,12 L57.2656,12 L57.2656,3.64063 L57.8906,3.64063 L57.8906,5.95313 M59.8125,6.57813 C59.125,6.57813 58.6328,6.79167 58.3359,7.21875 C58.0391,7.64583 57.8906,8.26042 57.8906,9.0625 L57.8906,9.14063 C57.8906,9.93229 58.0339,10.5365 58.3203,10.9531 C58.6068,11.3698 59.0781,11.5781 59.7344,11.5781 C60.3594,11.5781 60.8307,11.3594 61.1484,10.9219 C61.4661,10.4844 61.625,9.85938 61.625,9.04688 C61.625,7.40104 61.0208,6.57813 59.8125,6.57813 M68.75,9.0625 C68.75,9.67708 68.651,10.2109 68.4531,10.6641 C68.2552,11.1172 67.9583,11.4714 67.5625,11.7266 C67.1667,11.9818 66.6875,12.1094 66.125,12.1094 C65.5833,12.1094 65.1172,11.9844 64.7266,11.7344 C64.3359,11.4844 64.0365,11.1302 63.8281,10.6719 C63.6198,10.2135 63.5156,9.67708 63.5156,9.0625 C63.5156,8.11458 63.75,7.3724 64.2188,6.83594 C64.6875,6.29948 65.3385,6.03125 66.1719,6.03125 C66.724,6.03125 67.1927,6.15885 67.5781,6.41406 C67.9635,6.66927 68.2552,7.02344 68.4531,7.47656 C68.651,7.92969 68.75,8.45833 68.75,9.0625 M64.1719,9.0625 C64.1719,9.82292 64.3307,10.4323 64.6484,10.8906 C64.9661,11.349 65.4635,11.5781 66.1406,11.5781 C66.8177,11.5781 67.3151,11.3464 67.6328,10.8828 C67.9505,10.4193 68.1094,9.8125 68.1094,9.0625 C68.1094,8.58333 68.0417,8.15625 67.9063,7.78125 C67.7708,7.40625 67.5599,7.11198 67.2734,6.89844 C66.987,6.6849 66.6146,6.57813 66.1563,6.57813 C65.5,6.57813 65.0052,6.79688 64.6719,7.23438 C64.3385,7.67188 64.1719,8.28125 64.1719,9.0625 M72.4063,6.04688 C73.0729,6.04688 73.5677,6.20833 73.8906,6.53125 C74.2135,6.85417 74.375,7.36458 74.375,8.0625 L74.375,12 L73.8906,12 L73.7813,11.0156 L73.75,11.0156 C73.5417,11.3385 73.2839,11.6016 72.9766,11.8047 C72.6693,12.0078 72.2448,12.1094 71.7031,12.1094 C71.1406,12.1094 70.6979,11.9688 70.375,11.6875 C70.0521,11.4063 69.8906,11 69.8906,10.4688 C69.8906,9.88542 70.1302,9.4401 70.6094,9.13281 C71.0885,8.82552 71.7813,8.65625 72.6875,8.625 L73.75,8.5625 L73.75,8.15625 C73.75,7.58333 73.6354,7.17708 73.4063,6.9375 C73.1771,6.69792 72.8385,6.57813 72.3906,6.57813 C72.0885,6.57813 71.7995,6.61719 71.5234,6.69531 C71.2474,6.77344 70.9688,6.88021 70.6875,7.01563 L70.4844,6.51563 C70.7656,6.38021 71.0703,6.26823 71.3984,6.17969 C71.7266,6.09115 72.0625,6.04688 72.4063,6.04688 M72.7656,9.07813 C72.0156,9.11979 71.4583,9.2526 71.0938,9.47656 C70.7292,9.70052 70.5469,10.0313 70.5469,10.4688 C70.5469,10.8333 70.6589,11.1094 70.8828,11.2969 C71.1068,11.4844 71.4167,11.5781 71.8125,11.5781 C72.4271,11.5781 72.9036,11.4036 73.2422,11.0547 C73.5807,10.7057 73.75,10.224 73.75,9.60938 L73.75,9.04688 L72.7656,9.07813 M78.6406,6.04688 C78.9323,6.04688 79.1979,6.07813 79.4375,6.14063 L79.3438,6.71875 C79.1042,6.65625 78.8594,6.625 78.6094,6.625 C78.0781,6.625 77.6536,6.82292 77.3359,7.21875 C77.0182,7.61458 76.8594,8.13542 76.8594,8.78125 L76.8594,12 L76.2344,12 L76.2344,6.14063 L76.7656,6.14063 L76.8281,7.23438 L76.8594,7.23438 C77.0052,6.90104 77.2292,6.61979 77.5313,6.39063 C77.8333,6.16146 78.2031,6.04688 78.6406,6.04688 M82.4375,12.1094 C81.6563,12.1094 81.0547,11.8594 80.6328,11.3594 C80.2109,10.8594 80,10.1146 80,9.125 C80,8.125 80.2214,7.35938 80.6641,6.82813 C81.1068,6.29688 81.7188,6.03125 82.5,6.03125 C82.9896,6.03125 83.388,6.14063 83.6953,6.35938 C84.0026,6.57813 84.2292,6.83854 84.375,7.14063 L84.4219,7.14063 C84.4115,6.97396 84.401,6.78646 84.3906,6.57813 C84.3802,6.36979 84.375,6.17708 84.375,6 L84.375,3.64063 L85.0156,3.64063 L85.0156,12 L84.5,12 L84.4063,10.9844 L84.375,10.9844 C84.2292,11.2969 84,11.5625 83.6875,11.7813 C83.375,12 82.9583,12.1094 82.4375,12.1094 M82.5156,11.5781 C83.1927,11.5781 83.6745,11.3724 83.9609,10.9609 C84.2474,10.5495 84.3906,9.95313 84.3906,9.17188 L84.3906,9.07813 C84.3906,8.26563 84.25,7.64583 83.9688,7.21875 C83.6875,6.79167 83.2188,6.57813 82.5625,6.57813 C81.9375,6.57813 81.4635,6.79948 81.1406,7.24219 C80.8177,7.6849 80.6563,8.31771 80.6563,9.14063 C80.6563,9.93229 80.8099,10.5365 81.1172,10.9531 C81.4245,11.3698 81.8906,11.5781 82.5156,11.5781 M90.5781,13.4844 L85.9375,13.4844 L85.9375,12.9844 L90.5781,12.9844 L90.5781,13.4844 M94.1406,6.03125 C94.8073,6.03125 95.3151,6.20573 95.6641,6.55469 C96.013,6.90365 96.1875,7.44271 96.1875,8.17188 L96.1875,12 L95.5781,12 L95.5781,8.21875 C95.5781,7.65625 95.4479,7.24219 95.1875,6.97656 C94.9271,6.71094 94.5521,6.57813 94.0625,6.57813 C92.7813,6.57813 92.1406,7.32292 92.1406,8.8125 L92.1406,12 L91.5156,12 L91.5156,6.14063 L92.0156,6.14063 L92.1094,7.15625 L92.1563,7.15625 C92.3125,6.83333 92.5573,6.5651 92.8906,6.35156 C93.224,6.13802 93.6406,6.03125 94.1406,6.03125 M102.953,9.0625 C102.953,9.67708 102.854,10.2109 102.656,10.6641 C102.458,11.1172 102.161,11.4714 101.766,11.7266 C101.37,11.9818 100.891,12.1094 100.328,12.1094 C99.7865,12.1094 99.3203,11.9844 98.9297,11.7344 C98.5391,11.4844 98.2396,11.1302 98.0313,10.6719 C97.8229,10.2135 97.7188,9.67708 97.7188,9.0625 C97.7188,8.11458 97.9531,7.3724 98.4219,6.83594 C98.8906,6.29948 99.5417,6.03125 100.375,6.03125 C100.927,6.03125 101.396,6.15885 101.781,6.41406 C102.167,6.66927 102.458,7.02344 102.656,7.47656 C102.854,7.92969 102.953,8.45833 102.953,9.0625 M98.375,9.0625 C98.375,9.82292 98.5339,10.4323 98.8516,10.8906 C99.1693,11.349 99.6667,11.5781 100.344,11.5781 C101.021,11.5781 101.518,11.3464 101.836,10.8828 C102.154,10.4193 102.313,9.8125 102.313,9.0625 C102.313,8.58333 102.245,8.15625 102.109,7.78125 C101.974,7.40625 101.763,7.11198 101.477,6.89844 C101.19,6.6849 100.818,6.57813 100.359,6.57813 C99.7031,6.57813 99.2083,6.79688 98.875,7.23438 C98.5417,7.67188 98.375,8.28125 98.375,9.0625 M106.641,12.1094 C105.859,12.1094 105.258,11.8594 104.836,11.3594 C104.414,10.8594 104.203,10.1146 104.203,9.125 C104.203,8.125 104.424,7.35938 104.867,6.82813 C105.31,6.29688 105.922,6.03125 106.703,6.03125 C107.193,6.03125 107.591,6.14063 107.898,6.35938 C108.206,6.57813 108.432,6.83854 108.578,7.14063 L108.625,7.14063 C108.615,6.97396 108.604,6.78646 108.594,6.57813 C108.583,6.36979 108.578,6.17708 108.578,6 L108.578,3.64063 L109.219,3.64063 L109.219,12 L108.703,12 L108.609,10.9844 L108.578,10.9844 C108.432,11.2969 108.203,11.5625 107.891,11.7813 C107.578,12 107.161,12.1094 106.641,12.1094 M106.719,11.5781 C107.396,11.5781 107.878,11.3724 108.164,10.9609 C108.451,10.5495 108.594,9.95313 108.594,9.17188 L108.594,9.07813 C108.594,8.26563 108.453,7.64583 108.172,7.21875 C107.891,6.79167 107.422,6.57813 106.766,6.57813 C106.141,6.57813 105.667,6.79948 105.344,7.24219 C105.021,7.6849 104.859,8.31771 104.859,9.14063 C104.859,9.93229 105.013,10.5365 105.32,10.9531 C105.628,11.3698 106.094,11.5781 106.719,11.5781 M113.344,6.03125 C113.844,6.03125 114.26,6.14844 114.594,6.38281 C114.927,6.61719 115.18,6.9349 115.352,7.33594 C115.523,7.73698 115.609,8.19792 115.609,8.71875 L115.609,9.15625 L111.438,9.15625 C111.438,9.92708 111.617,10.5208 111.977,10.9375 C112.336,11.3542 112.854,11.5625 113.531,11.5625 C113.896,11.5625 114.214,11.5313 114.484,11.4688 C114.755,11.4063 115.052,11.3021 115.375,11.1563 L115.375,11.7344 C115.083,11.8698 114.794,11.9661 114.508,12.0234 C114.221,12.0807 113.891,12.1094 113.516,12.1094 C112.63,12.1094 111.953,11.8411 111.484,11.3047 C111.016,10.7682 110.781,10.0417 110.781,9.125 C110.781,8.52083 110.883,7.98958 111.086,7.53125 C111.289,7.07292 111.581,6.70833 111.961,6.4375 C112.341,6.16667 112.802,6.03125 113.344,6.03125 M113.328,6.5625 C112.797,6.5625 112.365,6.74219 112.031,7.10156 C111.698,7.46094 111.505,7.97396 111.453,8.64063 L114.969,8.64063 C114.969,8.01563 114.833,7.51302 114.563,7.13281 C114.292,6.7526 113.88,6.5625 113.328,6.5625 "/>
</g>

<g fill="none" stroke="#000000" stroke-opacity="1" stroke-width="1" stroke-linecap="square" stroke-linejoin="bevel" transform="matrix(2,0,0,2,69.6637,74)"
font-family="sans" font-size="11" font-weight="100" font-style="normal" 
>
</g>

<g fill="none" stroke="#000000" stroke-opacity="1" stroke-width="1" stroke-linecap="square" stroke-linejoin="bevel" transform="matrix(2,0,0,2,69.6637,74)"
font-family="Sans Serif" font-size="9" font-weight="400" font-style="normal" 
>
</g>

<g fill="none" stroke="#000000" stroke-opacity="1" stroke-width="1" stroke-linecap="square" stroke-linejoin="bevel" transform="matrix(2,0,0,2,-0.0016,180)"
font-family="Sans Serif" font-size="9" font-weight="400" font-style="normal" 
>
</g>

<g fill="none" stroke="#000000" stroke-opacity="1" stroke-width="1" stroke-linecap="square" stroke-linejoin="bevel" transform="matrix(2,0,0,2,-0.0016,180)"
font-family="Sans Serif" font-size="9" font-weight="400" font-style="normal" 
>
</g>

<g fill="none" stroke="#000000" stroke-opacity="1" stroke-width="1" stroke-linecap="square" stroke-linejoin="bevel" transform="matrix(2,0,0,2,-0.0016,180)"
font-family="Sans Serif" font-size="9" font-weight="400" font-style="normal" 
>
</g>

<g fill="none" stroke="#000000" stroke-opacity="1" stroke-width="1" stroke-linecap="square" stroke-linejoin="round" transform="matrix(2,0,0,2,-0.0016,180)"
font-family="Sans Serif" font-size="9" font-weight="400" font-style="normal" 
>
<path vector-effect="none" fill-rule="evenodd" d="M284.17,-45 C285.28,-45 286.39,-45 287.52,-45 "/>
</g>

<g fill="none" stroke="#000000" stroke-opacity="1" stroke-width="1" stroke-linecap="square" stroke-linejoin="bevel" transform="matrix(2,0,0,2,-0.0016,180)"
font-family="Sans Serif" font-size="9" font-weight="400" font-style="normal" 
>
</g>

<g fill="none" stroke="#000000" stroke-opacity="1" stroke-width="1" stroke-linecap="square" stroke-linejoin="bevel" transform="matrix(2,0,0,2,-0.0016,180)"
font-family="Sans Serif" font-size="9" font-weight="400" font-style="normal" 
>
</g>

<g fill="#000000" fill-opacity="1" stroke="#000000" stroke-opacity="1" stroke-width="1" stroke-linecap="square" stroke-linejoin="round" transform="matrix(2,0,0,2,-0.0016,180)"
font-family="Sans Serif" font-size="9" font-weight="400" font-style="normal" 
>
<path vector-effect="none" fill-rule="evenodd" d="M287.52,-45 L287.52,-41.4055 L297.79,-45 L287.52,-48.5945 L287.52,-45"/>
</g>

<g fill="none" stroke="#000000" stroke-opacity="1" stroke-width="1" stroke-linecap="square" stroke-linejoin="bevel" transform="matrix(2,0,0,2,-0.0016,180)"
font-family="Sans Serif" font-size="9" font-weight="400" font-style="normal" 
>
</g>

<g fill="none" stroke="#000000" stroke-opacity="1" stroke-width="1" stroke-linecap="square" stroke-linejoin="bevel" transform="matrix(2,0,0,2,-0.0016,180)"
font-family="Sans Serif" font-size="9" font-weight="400" font-style="normal" 
>
</g>

<g fill="none" stroke="#000000" stroke-opacity="1" stroke-width="1" stroke-linecap="square" stroke-linejoin="bevel" transform="matrix(2,0,0,2,-0.0016,180)"
font-family="Sans Serif" font-size="9" font-weight="400" font-style="normal" 
>
</g>

<g fill="none" stroke="#000000" stroke-opacity="1" stroke-width="1" stroke-linecap="square" stroke-linejoin="bevel" transform="matrix(2,0,0,2,-0.0016,180)"
font-family="Sans Serif" font-size="9" font-weight="400" font-style="normal" 
>
</g>

<g fill="none" stroke="#000000" stroke-opacity="1" stroke-width="1" stroke-linecap="square" stroke-linejoin="round" transform="matrix(2,0,0,2,-0.0016,180)"
font-family="Sans Serif" font-size="9" font-weight="400" font-style="normal" 
>
<path vector-effect="none" fill-rule="evenodd" d="M414.72,-55.982 C420.29,-57.186 426,-58.419 431.64,-59.638 "/>
</g>

<g fill="none" stroke="#000000" stroke-opacity="1" stroke-width="1" stroke-linecap="square" stroke-linejoin="bevel" transform="matrix(2,0,0,2,-0.0016,180)"
font-family="Sans Serif" font-size="9" font-weight="400" font-style="normal" 
>
</g>

<g fill="none" stroke="#000000" stroke-opacity="1" stroke-width="1" stroke-linecap="square" stroke-linejoin="bevel" transform="matrix(2,0,0,2,-0.0016,180)"
font-family="Sans Serif" font-size="9" font-weight="400" font-style="normal" 
>
</g>

<g fill="#000000" fill-opacity="1" stroke="#000000" stroke-opacity="1" stroke-width="1" stroke-linecap="square" stroke-linejoin="round" transform="matrix(2,0,0,2,-0.0016,180)"
font-family="Sans Serif" font-size="9" font-weight="400" font-style="normal" 
>
<path vector-effect="none" fill-rule="evenodd" d="M431.64,-59.638 L432.401,-56.1135 L441.71,-61.812 L430.879,-63.1625 L431.64,-59.638"/>
</g>

<g fill="none" stroke="#000000" stroke-opacity="1" stroke-width="1" stroke-linecap="square" stroke-linejoin="bevel" transform="matrix(2,0,0,2,-0.0016,180)"
font-family="Sans Serif" font-size="9" font-weight="400" font-style="normal" 
>
</g>

<g fill="none" stroke="#000000" stroke-opacity="1" stroke-width="1" stroke-linecap="square" stroke-linejoin="bevel" transform="matrix(2,0,0,2,-0.0016,180)"
font-family="Sans Serif" font-size="9" font-weight="400" font-style="normal" 
>
</g>

<g fill="none" stroke="#000000" stroke-opacity="1" stroke-width="1" stroke-linecap="square" stroke-linejoin="bevel" transform="matrix(2,0,0,2,-0.0016,180)"
font-family="Sans Serif" font-size="9" font-weight="400" font-style="normal" 
>
</g>

<g fill="none" stroke="#000000" stroke-opacity="1" stroke-width="1" stroke-linecap="square" stroke-linejoin="bevel" transform="matrix(2,0,0,2,-0.0016,180)"
font-family="Sans Serif" font-size="9" font-weight="400" font-style="normal" 
>
</g>

<g fill="none" stroke="#000000" stroke-opacity="1" stroke-width="1" stroke-linecap="square" stroke-linejoin="round" transform="matrix(2,0,0,2,-0.0016,180)"
font-family="Sans Serif" font-size="9" font-weight="400" font-style="normal" 
>
<path vector-effect="none" fill-rule="evenodd" d="M414.72,-34.018 C421.19,-32.619 427.84,-31.183 434.37,-29.772 "/>
</g>

<g fill="none" stroke="#000000" stroke-opacity="1" stroke-width="1" stroke-linecap="square" stroke-linejoin="bevel" transform="matrix(2,0,0,2,-0.0016,180)"
font-family="Sans Serif" font-size="9" font-weight="400" font-style="normal" 
>
</g>

<g fill="none" stroke="#000000" stroke-opacity="1" stroke-width="1" stroke-linecap="square" stroke-linejoin="bevel" transform="matrix(2,0,0,2,-0.0016,180)"
font-family="Sans Serif" font-size="9" font-weight="400" font-style="normal" 
>
</g>

<g fill="#000000" fill-opacity="1" stroke="#000000" stroke-opacity="1" stroke-width="1" stroke-linecap="square" stroke-linejoin="round" transform="matrix(2,0,0,2,-0.0016,180)"
font-family="Sans Serif" font-size="9" font-weight="400" font-style="normal" 
>
<path vector-effect="none" fill-rule="evenodd" d="M434.37,-29.772 L433.605,-26.2265 L444.5,-27.586 L435.135,-33.3175 L434.37,-29.772"/>
</g>

<g fill="none" stroke="#000000" stroke-opacity="1" stroke-width="1" stroke-linecap="square" stroke-linejoin="bevel" transform="matrix(2,0,0,2,-0.0016,180)"
font-family="Sans Serif" font-size="9" font-weight="400" font-style="normal" 
>
</g>

<g fill="none" stroke="#000000" stroke-opacity="1" stroke-width="1" stroke-linecap="square" stroke-linejoin="bevel" transform="matrix(2,0,0,2,-0.0016,180)"
font-family="Sans Serif" font-size="9" font-weight="400" font-style="normal" 
>
</g>

<g fill="none" stroke="#000000" stroke-opacity="1" stroke-width="1" stroke-linecap="square" stroke-linejoin="bevel" transform="matrix(2,0,0,2,-0.0016,180)"
font-family="Sans Serif" font-size="9" font-weight="400" font-style="normal" 
>
</g>

<g fill="none" stroke="#000000" stroke-opacity="1" stroke-width="1" stroke-linecap="square" stroke-linejoin="bevel" transform="matrix(2,0,0,2,-0.0016,180)"
font-family="Sans Serif" font-size="9" font-weight="400" font-style="normal" 
>
</g>

<g fill="none" stroke="#000000" stroke-opacity="1" stroke-width="1" stroke-linecap="square" stroke-linejoin="round" transform="matrix(2,0,0,2,-0.0016,180)"
font-family="Sans Serif" font-size="9" font-weight="400" font-style="normal" 
>
<path vector-effect="none" fill-rule="evenodd" d="M186.17,-45 C187.32,-45 188.47,-45 189.61,-45 "/>
</g>

<g fill="none" stroke="#000000" stroke-opacity="1" stroke-width="1" stroke-linecap="square" stroke-linejoin="bevel" transform="matrix(2,0,0,2,-0.0016,180)"
font-family="Sans Serif" font-size="9" font-weight="400" font-style="normal" 
>
</g>

<g fill="none" stroke="#000000" stroke-opacity="1" stroke-width="1" stroke-linecap="square" stroke-linejoin="bevel" transform="matrix(2,0,0,2,-0.0016,180)"
font-family="Sans Serif" font-size="9" font-weight="400" font-style="normal" 
>
</g>

<g fill="#000000" fill-opacity="1" stroke="#000000" stroke-opacity="1" stroke-width="1" stroke-linecap="square" stroke-linejoin="round" transform="matrix(2,0,0,2,-0.0016,180)"
font-family="Sans Serif" font-size="9" font-weight="400" font-style="normal" 
>
<path vector-effect="none" fill-rule="evenodd" d="M189.61,-45 L189.61,-41.5 L199.61,-45 L189.61,-48.5 L189.61,-45"/>
</g>

<g fill="none" stroke="#000000" stroke-opacity="1" stroke-width="1" stroke-linecap="square" stroke-linejoin="bevel" transform="matrix(2,0,0,2,-0.0016,180)"
font-family="Sans Serif" font-size="9" font-weight="400" font-style="normal" 
>
</g>

<g fill="none" stroke="#000000" stroke-opacity="1" stroke-width="1" stroke-linecap="square" stroke-linejoin="bevel" transform="matrix(1,0,0,1,0,0)"
font-family="Sans Serif" font-size="9" font-weight="400" font-style="normal" 
>
</g>
</g>
</svg>
